<svg width="55" height="51" viewBox="0 0 55 51" fill="none" xmlns="http://www.w3.org/2000/svg">
  <path
    d="M53.5743 22.7971V28.2016L49.6569 28.5886C49.2719 30.3412 48.576 32.009 47.6029 33.5111L50.134 36.5996L46.3597 40.411L43.3025 37.854C41.8204 38.8456 40.1685 39.5493 38.431 39.9291L38.048 43.9346H32.2702V32.5487H32.4456C36.2995 34.3359 40.8579 32.6285 42.627 28.7353C44.3962 24.842 42.706 20.237 38.8521 18.4499C36.7663 17.4826 34.3616 17.5086 32.2969 18.5207H32.2702V7.06415H38.048L38.431 11.0697C40.1654 11.459 41.8158 12.1621 43.3025 13.1447L46.3597 10.5878L50.0863 14.4005L47.5552 17.489C48.537 18.9865 49.2336 20.6559 49.6092 22.4116L53.5743 22.7971Z"
    fill="#00C2FF" />
  <path
    d="M32.2702 32.5483V35.5985H19.6637L19.5683 35.59C19.5823 35.4228 19.5893 35.2527 19.5893 35.0812C19.5893 31.7714 16.9335 29.0885 13.6572 29.0885C10.3809 29.0885 7.72504 31.7714 7.72504 35.0812C7.72504 35.2555 7.73205 35.4284 7.74749 35.5985H5.81968C3.39281 35.5982 1.42557 33.6109 1.42529 31.1593V27.4089C1.42543 25.4074 2.75091 23.6532 4.66216 23.1255L14.8287 20.3205L20.9068 12.257C22.0154 10.7869 23.7399 9.92401 25.5692 9.92401H32.2702V32.5483Z"
    fill="white" />
  <path
    d="M7.74767 35.599C7.73224 35.429 7.72522 35.256 7.72522 35.0817C7.72522 31.772 10.3811 29.089 13.6574 29.089C16.9337 29.089 19.5895 31.772 19.5895 35.0817C19.5895 35.2532 19.5825 35.4233 19.5685 35.5905C19.2905 38.8882 16.4189 41.3341 13.1545 41.0533C10.2788 40.8059 7.99657 38.5037 7.74767 35.599Z"
    fill="#D4E1F4" />
  <path
    d="M53.7201 21.3864L50.7333 21.0965C50.3867 19.8808 49.8989 18.7108 49.2799 17.611L51.1688 15.3045C51.6279 14.7438 51.592 13.9228 51.0857 13.4052L47.3588 9.59244C46.8477 9.069 46.025 9.02747 45.4647 9.49662L43.1742 11.4122C42.0871 10.7891 40.9321 10.2956 39.7323 9.94182L39.4441 6.93966C39.3737 6.21552 38.7685 5.66486 38.0482 5.66954H33.6735V1.41739C33.6735 0.634563 33.0453 0 32.2704 0C31.4955 0 30.8673 0.634563 30.8673 1.41739V8.50431H25.5694C23.3033 8.51126 21.1687 9.58011 19.7907 11.3975L14.0007 19.0797L4.28158 21.7586C1.76028 22.4573 0.0092602 24.7682 0 27.4094V31.1598C0.0159949 34.3929 2.61952 37.0027 5.8199 36.9938H6.57685C6.91807 38.3535 7.65188 39.5799 8.68495 40.5172C11.4926 43.1448 15.8305 43.1421 18.6349 40.5111C19.6666 39.5758 20.3992 38.3513 20.7395 36.9938H30.8673V48.7581C30.8673 49.5409 31.4955 50.1754 32.2704 50.1754C33.0453 50.1754 33.6735 49.5409 33.6735 48.7581V45.3563H38.0482C38.7712 45.3553 39.3755 44.8001 39.4448 44.0732L39.7329 41.0598C40.9359 40.7104 42.0937 40.2184 43.1822 39.5939L45.4652 41.503C46.0228 41.9692 46.8399 41.9305 47.3518 41.4136L51.126 37.6022C51.6381 37.0852 51.6766 36.2593 51.2148 35.6959L49.3187 33.3821C49.9358 32.2831 50.4243 31.1154 50.7745 29.9024L53.7221 29.6124C54.443 29.5426 54.9949 28.9334 55 28.2017V22.7972C54.9949 22.0649 54.4419 21.4552 53.7201 21.3864ZM33.6735 19.4834C36.9628 18.3825 40.513 20.1838 41.6027 23.5068C42.6925 26.8298 40.9093 30.4161 37.62 31.517C36.3387 31.9457 34.9547 31.9457 33.6736 31.517L33.6735 19.4834ZM18.1703 35.4715C17.9571 37.9892 15.7638 39.8555 13.2716 39.64C11.0776 39.4504 9.33653 37.6939 9.14571 35.4777C9.14571 35.4752 9.14571 35.4725 9.14571 35.4698C9.13463 35.3472 9.12902 35.2164 9.12902 35.0811C9.12902 32.5542 11.1567 30.5058 13.6581 30.5058C16.1595 30.5058 18.1872 32.5542 18.1872 35.0811C18.1865 35.2134 18.1811 35.3435 18.1703 35.4715ZM20.9366 34.159C20.4465 30.0978 16.7903 27.2067 12.7701 27.7018C9.42338 28.1138 6.78605 30.7781 6.37818 34.159H5.8199C4.16863 34.1695 2.82043 32.8279 2.80612 31.1598V27.4094C2.81314 26.0454 3.71853 24.8533 5.02085 24.4934L15.193 21.6884C15.4913 21.6065 15.7546 21.4277 15.9424 21.1797L22.0216 13.1148C22.8678 11.9994 24.1783 11.3435 25.5694 11.3391H30.8673V34.159H20.9366ZM52.1939 26.9161L49.5317 27.1781C48.9238 27.2376 48.4231 27.6859 48.2917 28.2885C47.9405 29.8745 47.309 31.3836 46.4273 32.7432C46.0951 33.2623 46.1343 33.9391 46.5242 34.4157L48.2402 36.5101L46.2716 38.4962L44.1975 36.7617C43.7201 36.3624 43.0399 36.3269 42.5243 36.6743C41.1883 37.5669 39.6995 38.2008 38.1339 38.5434C37.5375 38.6749 37.0933 39.1805 37.0346 39.7944L36.7742 42.5216H33.6735V34.4549C38.5693 35.5557 43.4215 32.4387 44.5111 27.4929C45.6008 22.5471 42.5153 17.6453 37.6194 16.5446C36.3201 16.2524 34.9728 16.2524 33.6735 16.5446V8.50431H36.7742L37.0346 11.2175C37.0937 11.8296 37.5385 12.3325 38.1339 12.4607C39.7034 12.8137 41.1968 13.4501 42.5425 14.3391C43.0571 14.6739 43.7271 14.6329 44.1981 14.2381L46.2652 12.5089L48.1973 14.485L46.4753 16.5858C46.08 17.0682 46.045 17.7553 46.3889 18.2762C47.2726 19.6262 47.8999 21.1307 48.2389 22.7126C48.3732 23.3167 48.8769 23.7649 49.4869 23.8233L52.1949 24.0855L52.1939 26.9161Z"
    fill="#083863" />
</svg>