<svg width="34" height="40" viewBox="0 0 34 40" fill="none" xmlns="http://www.w3.org/2000/svg">
<path d="M6.6875 30.6282V9.3718C6.6875 5.05883 10.1753 1.5625 14.4778 1.5625H9.73438C5.41961 1.5625 1.92188 5.06023 1.92188 9.375V30.625C1.92188 34.9397 5.41961 38.4375 9.73438 38.4375H14.4778C10.1753 38.4375 6.6875 34.9412 6.6875 30.6282Z" fill="#CEE8FF"/>
<path d="M24.1875 40H9.8125C4.64313 40 0.4375 35.7944 0.4375 30.625V9.375C0.4375 4.20563 4.64313 0 9.8125 0H24.1875C29.3569 0 33.5625 4.20563 33.5625 9.375V30.625C33.5625 35.7944 29.3569 40 24.1875 40ZM9.8125 3.125C6.36625 3.125 3.5625 5.92875 3.5625 9.375V30.625C3.5625 34.0713 6.36625 36.875 9.8125 36.875H24.1875C27.6338 36.875 30.4375 34.0713 30.4375 30.625V9.375C30.4375 5.92875 27.6338 3.125 24.1875 3.125H9.8125Z" fill="#1749A0"/>
<path d="M23.9102 19.7751H10.707C9.84407 19.7751 9.14454 19.0756 9.14454 18.2126C9.14454 17.3497 9.84407 16.6501 10.707 16.6501H23.9102C24.7731 16.6501 25.4727 17.3497 25.4727 18.2126C25.4727 19.0756 24.7731 19.7751 23.9102 19.7751ZM25.4727 12.197C25.4727 11.334 24.7731 10.6345 23.9102 10.6345H20.8633C20.0003 10.6345 19.3008 11.334 19.3008 12.197C19.3008 13.06 20.0003 13.7595 20.8633 13.7595H23.9102C24.7731 13.7595 25.4727 13.06 25.4727 12.197ZM15.0664 12.8238L18.0666 9.79771C18.6742 9.1849 18.6699 8.19561 18.057 7.58803C17.4443 6.98053 16.455 6.98467 15.8474 7.59756L12.8471 10.6237C12.8328 10.638 12.8151 10.6379 12.8009 10.6237L11.3477 9.15795C10.7402 8.54506 9.75087 8.54084 9.13806 9.14842C8.52524 9.756 8.52102 10.7453 9.12853 11.3581L10.5817 12.8238C11.1799 13.4272 11.9762 13.7595 12.824 13.7595C13.672 13.7595 14.4683 13.4272 15.0664 12.8238Z" fill="#00C2FF"/>
<path d="M10.6707 25.3953H23.8738C24.7368 25.3953 25.4363 24.6957 25.4363 23.8328C25.4363 22.9698 24.7368 22.2703 23.8738 22.2703H10.6707C9.80769 22.2703 9.10815 22.9698 9.10815 23.8328C9.10815 24.6957 9.80769 25.3953 10.6707 25.3953Z" fill="#00C2FF"/>
<path d="M10.6707 31.0168H23.8738C24.7368 31.0168 25.4363 30.3173 25.4363 29.4543C25.4363 28.5914 24.7368 27.8918 23.8738 27.8918H10.6707C9.80769 27.8918 9.10815 28.5914 9.10815 29.4543C9.10815 30.3173 9.80769 31.0168 10.6707 31.0168Z" fill="#00C2FF"/>
</svg>
