<svg width="1547" height="105" viewBox="0 0 1547 105" fill="none" xmlns="http://www.w3.org/2000/svg">
  <g style="mix-blend-mode:multiply">
    <path
      d="M0 0C0 0 53.399 34.5733 121.998 63.4373C201.646 96.95 319.214 122.662 544.609 89.7241C563.319 86.9884 619.768 76.0454 650.487 71.248C713.746 61.3557 819.984 33.701 992.981 66.4109C992.981 66.4109 1287.97 126.875 1442.97 85.2438C1442.97 85.2438 1516.04 66.8074 1547 52.2366V0H0Z"
      fill="#CEE8FF" />
    <path
      d="M0 0C0 0 53.399 34.5733 121.998 63.4373C201.646 96.95 319.214 122.662 544.609 89.7241C563.319 86.9884 619.768 76.0454 650.487 71.248C713.746 61.3557 819.984 33.701 992.981 66.4109C992.981 66.4109 1287.97 126.875 1442.97 85.2438C1442.97 85.2438 1516.04 66.8074 1547 52.2366V0H0Z"
      fill="#CEE8FF" />
    <path
      d="M0 0C0 0 53.399 34.5733 121.998 63.4373C201.646 96.95 319.214 122.662 544.609 89.7241C563.319 86.9884 619.768 76.0454 650.487 71.248C713.746 61.3557 819.984 33.701 992.981 66.4109C992.981 66.4109 1287.97 126.875 1442.97 85.2438C1442.97 85.2438 1516.04 66.8074 1547 52.2366V0H0Z"
      fill="#CEE8FF" />
  </g>
</svg>