<svg width="105" height="26" viewBox="0 0 105 26" fill="none" xmlns="http://www.w3.org/2000/svg">
  <path
    d="M3.32687 8.22274C2.1544 8.54514 1.02591 9.14596 0 9.9959V9.02872C0.952627 8.32532 1.96388 7.81243 2.98978 7.54865L3.0191 7.534L3.03375 7.56331C3.10703 7.76846 3.22428 7.97362 3.34152 8.17878L3.37084 8.22274H3.32687ZM2.76995 6.72802V6.69871C2.74064 6.44959 2.75529 6.21512 2.79926 5.99531L2.81392 5.93669L2.75529 5.95135C1.99319 6.14185 1.23109 6.43494 0.483642 6.84525C0.337084 6.91852 0.17587 7.00645 0 7.12368V8.03224C0.894004 7.44607 1.81732 7.00645 2.74064 6.75733L2.76995 6.72802ZM22.7605 21.1917C21.4854 21.177 20.4009 20.9132 19.4189 20.3857C19.1405 20.2392 18.9206 20.1659 18.7301 20.1659C18.5249 20.1659 18.3784 20.2392 18.2465 20.3124C18.2025 20.3417 18.1732 20.371 18.1732 20.4004C18.1732 20.415 18.1732 20.4297 18.2025 20.459C19.5215 21.4555 21.0751 21.9537 22.8484 21.9537C23.332 21.9537 23.845 21.9097 24.358 21.8365C25.7649 21.6313 27.1865 21.1477 28.5788 20.415V19.5211C27.7728 19.99 26.952 20.3564 26.1313 20.6348C24.9588 21.0158 23.8303 21.2063 22.7605 21.1917ZM28.1098 8.16413C28.2711 7.75381 28.4176 7.31419 28.5495 6.8306V9.07269C28.359 9.49766 28.1392 9.90797 27.89 10.289C26.3805 12.7509 24.1967 14.1577 21.7199 14.2603C21.3682 14.2749 21.119 14.4947 21.0018 14.6413C20.8845 14.7732 20.8259 14.8904 20.8259 14.9197C20.8992 14.9637 21.4121 15.0955 21.6906 15.0955H21.7053C24.4312 15.0369 26.8641 13.5129 28.5642 10.8019V12.1354C28.3883 12.3699 28.2124 12.575 28.0366 12.7802C26.3511 14.6706 24.3286 15.6817 22.1889 15.6817C21.9104 15.6817 21.6173 15.6671 21.3242 15.6231C21.2949 15.6231 21.2509 15.6231 21.2216 15.6231C20.738 15.6231 20.3569 16.0334 20.3276 16.1213C20.3862 16.1946 20.8552 16.3998 21.163 16.4437C21.4854 16.4877 21.8078 16.517 22.1303 16.517H22.2182C24.5485 16.517 26.7469 15.4472 28.5788 13.425V14.524C28.3004 14.7878 28.0072 15.0369 27.7434 15.2567C26.146 16.5317 24.3726 17.1911 22.6432 17.1911C21.9544 17.1911 21.2656 17.0885 20.5914 16.8687C20.5035 16.8394 20.4155 16.8247 20.3276 16.8247C19.9026 16.8247 19.5508 17.1032 19.5215 17.1618C19.5802 17.2351 20.0052 17.5428 20.2836 17.6307C21.0457 17.8798 21.8225 18.0117 22.5699 18.0117H22.6579C24.5631 18.0117 26.5124 17.279 28.2564 15.8869C28.3736 15.7989 28.4762 15.711 28.5788 15.6231V16.6049C28.0659 17.0006 27.5383 17.3376 26.996 17.6307C25.633 18.3634 24.2407 18.7298 22.8631 18.7298C22.101 18.7298 21.3535 18.6125 20.6207 18.3927C20.5474 18.3781 20.4742 18.3634 20.3862 18.3634C19.9612 18.3634 19.5948 18.7151 19.5655 18.7884C19.6241 18.8617 20.1078 19.1108 20.3569 19.1987C21.163 19.4625 21.9691 19.5944 22.7312 19.609C22.7605 19.609 22.7898 19.609 22.8191 19.609C24.314 19.609 25.8528 19.1841 27.3624 18.3781C27.7434 18.1729 28.1538 17.9238 28.5495 17.6454V18.5686C27.6702 19.1254 26.7468 19.5504 25.8382 19.8581C24.6071 20.2685 23.5226 20.4736 22.526 20.4883C21.4561 20.4443 20.4595 20.2245 19.6534 19.7995C19.2431 19.5797 18.8034 19.4771 18.1879 19.9314C17.9241 20.1219 17.8215 20.1659 17.6309 20.1659C17.4551 20.1659 17.1913 19.8875 16.8981 19.7263C16.3852 19.4332 16.2973 19.3892 15.755 19.1987C15.4033 19.0668 15.5498 17.8652 15.6817 17.6307C15.9455 17.1618 17.1326 16.942 17.4258 16.3851C17.6163 16.0188 17.2499 15.6524 17.0887 15.4326C17.0154 16.18 16.2386 16.473 15.4619 16.4584C14.6705 16.4437 13.2342 15.9601 13.2049 15.5498C13.0876 15.7257 12.9557 16.0334 12.985 16.3265C13.073 16.9713 14.8903 16.9713 15.1688 17.6307C15.2714 17.8505 15.1834 18.6125 15.1101 18.8324C15.0222 19.1108 14.8463 19.1694 14.4799 19.2866C12.9557 19.7849 12.7945 21.3382 10.8013 19.4771C12.6626 22.8622 13.2635 19.9314 15.0662 19.9461C16.605 19.9607 17.6456 21.1624 18.481 21.7046C18.5103 21.7192 18.5543 21.7485 18.5982 21.7632C19.0526 22.0416 19.5948 22.2614 20.2836 22.4666C21.0311 22.6864 21.8372 22.789 22.6872 22.8036C23.2588 22.8036 23.845 22.7743 24.4312 22.6864C25.7942 22.4812 27.1719 22.0416 28.5349 21.3822V22.2761C26.527 23.1846 24.4312 23.6243 22.482 23.5803C21.0897 23.5363 19.8293 23.2433 18.7301 22.7011C18.6129 22.6424 18.4956 22.6131 18.3491 22.6131C17.9827 22.6131 17.6602 22.8183 17.6163 22.8916C17.6602 22.9648 18.0853 23.3165 18.3198 23.4338C19.4922 24.0346 20.8845 24.357 22.4527 24.4009C22.526 24.4009 22.5846 24.4009 22.6579 24.4009C24.5485 24.4156 26.5856 23.9906 28.5202 23.17V24.0639C26.6589 24.7819 24.7097 25.163 22.8777 25.163C22.013 25.163 21.1776 25.075 20.3862 24.9138C19.2577 24.6794 18.2318 24.2837 17.3378 23.7268C17.2059 23.6389 17.0447 23.6096 16.8835 23.6096C16.5464 23.6096 16.2679 23.7708 16.224 23.8148C16.2679 23.9027 16.6637 24.2837 16.8835 24.4156C17.6456 24.8992 18.5396 25.2362 19.5215 25.5H17.3525C16.4731 25.075 15.711 24.5914 15.0662 23.976C14.8756 23.8001 14.6265 23.7562 14.4653 23.7562C14.2015 23.7562 13.9963 23.8441 13.967 23.8734C13.9963 23.9613 14.3041 24.3863 14.5092 24.5768C14.861 24.9138 15.2714 25.1923 15.711 25.5H14.4799C13.7765 24.8992 13.1902 24.2837 12.7359 23.5657C12.56 23.2872 12.4135 23.214 12.2229 23.1114C12.1497 23.0674 12.0617 23.0234 11.9738 22.9648C11.7686 22.8329 11.5488 22.6131 11.3876 22.3787C11.5048 22.8476 11.6807 23.4045 12.0324 23.976C12.3548 24.5035 12.7652 24.9871 13.2489 25.4707H12.2083C10.8306 23.8587 10.1711 22.0563 10.3177 20.1805C10.3323 19.8435 10.1418 19.5944 10.0246 19.4771C9.87802 19.3306 9.74611 19.2573 9.7168 19.2427C9.65818 19.3159 9.51162 19.8435 9.49696 20.1073C9.35041 21.9977 9.92198 23.8294 11.1531 25.4707H10.2151C8.72021 23.2286 8.36847 20.84 9.24782 18.6272C9.43834 18.129 9.11591 17.5721 9.04263 17.5281C8.96935 17.5721 8.61761 17.9824 8.51502 18.2462C7.57705 20.5762 7.8262 23.1114 9.23316 25.4707H8.35381H8.33916C6.91754 22.8329 6.82961 20.1659 8.10466 17.9385C8.29519 17.6161 8.23656 17.2937 8.17794 17.1178C8.11932 16.9273 8.04604 16.8247 8.03138 16.8247C7.97276 16.8394 7.62102 17.1178 7.41584 17.4695C6.02354 19.8435 6.02354 22.6571 7.43049 25.4853H6.58046C6.40459 25.075 6.24337 24.7233 6.11147 24.3423C5.1735 21.5287 5.55455 18.8763 7.18135 16.8834C7.35722 16.6782 7.34256 16.3998 7.31325 16.2093C7.26928 15.9748 7.18135 15.7989 7.15203 15.7696C7.07876 15.7989 6.72702 16.136 6.50718 16.3998C4.70451 18.5686 4.29415 21.4848 5.32006 24.6061C5.42265 24.8992 5.5399 25.163 5.6718 25.4853H4.85107C4.49933 24.5914 4.26484 23.7268 4.13294 22.8476C3.69326 19.8435 4.55796 17.279 6.5658 15.6231C6.82961 15.4033 6.88823 15.0809 6.88823 14.905C6.90288 14.7145 6.87357 14.568 6.84426 14.5387C6.74167 14.5533 6.27269 14.7878 6.0675 14.9637C3.81051 16.7954 2.82857 19.6383 3.31221 22.9648C3.42946 23.8148 3.66395 24.6208 3.97172 25.4853H3.13634C2.62339 23.9467 2.3889 22.4812 2.43286 21.0158C2.5208 17.9531 3.83982 15.5645 6.15544 14.2749C6.44856 14.1137 6.55115 13.806 6.59511 13.6448C6.65374 13.4543 6.63908 13.3077 6.62443 13.2638C6.47787 13.2638 5.97957 13.425 5.77439 13.5422C3.18031 14.9344 1.70007 17.5868 1.59748 20.9865C1.55352 22.4519 1.77335 23.932 2.25699 25.4853H1.42161C0.776758 23.1993 0.659511 20.9572 1.08453 18.9203C1.70007 15.9455 3.38549 13.8206 5.84767 12.956C6.15544 12.8535 6.31665 12.5604 6.38993 12.3992C6.46321 12.2233 6.47787 12.0768 6.47787 12.0328C6.46321 12.0328 6.44856 12.0328 6.40459 12.0328C6.21406 12.0328 5.83301 12.0914 5.59852 12.1647C2.84323 13.1026 0.967283 15.4326 0.27846 18.7444C0.117246 19.5211 0.0293116 20.3417 0.0146558 21.2063L0 21.5287V16.9273C0.0439674 16.8247 0.073279 16.7222 0.117246 16.6342C1.20178 13.9086 3.13634 12.1354 5.56921 11.6225C5.90629 11.5492 6.12613 11.2855 6.21406 11.1389C6.31665 10.9777 6.34597 10.8605 6.36062 10.8312C6.31665 10.8165 6.09682 10.7726 5.81836 10.7726C5.68645 10.7726 5.55455 10.7872 5.46662 10.8019C3.16565 11.2562 1.27506 12.6776 0 14.949V13.5276C1.5242 11.4174 3.61998 10.245 5.89163 10.2157C6.22872 10.2157 6.47787 9.9959 6.59511 9.86401C6.72702 9.71747 6.78564 9.58558 6.80029 9.55627C6.72702 9.51231 6.25803 9.39508 5.9356 9.39508C3.67861 9.39508 1.62679 10.3769 0 12.2087V11.1096C1.18712 9.96659 2.50614 9.23388 3.9131 8.9408C4.17691 8.88218 4.32346 8.80891 4.35278 8.72099C4.39674 8.60375 4.25018 8.4279 4.07431 8.20809L4.01569 8.13482C3.13634 7.05041 3.59067 5.89273 4.17691 4.88159C2.82857 4.96952 1.45092 5.37984 0.0879348 6.11254C0.073279 6.1272 0.0586232 6.14185 0.0293116 6.15651C0.0293116 6.15651 0.0146558 6.15651 0 6.17116V5.30657C0.542265 5.02814 1.08453 4.80832 1.62679 4.63247C2.63805 4.29543 3.63464 4.11958 4.60192 4.11958C6.4339 4.11958 8.09001 4.74971 9.36506 5.93669C9.54093 6.09789 9.79008 6.14185 9.95129 6.14185C10.2151 6.14185 10.4349 6.06858 10.4789 6.03927C10.4349 5.93669 10.1125 5.49707 9.90733 5.32122C8.44175 4.00234 6.59511 3.29894 4.57261 3.29894C3.53205 3.29894 2.44752 3.48945 1.34833 3.84115C0.923316 3.98769 0.468986 4.16354 0 4.38335V3.53341C1.04056 3.09379 2.09578 2.78605 3.12169 2.63951C3.63464 2.56624 4.13294 2.52227 4.60192 2.52227C7.13738 2.52227 9.29178 3.57737 10.6694 5.48242C10.8746 5.7755 11.241 5.80481 11.4315 5.80481C11.6074 5.80481 11.71 5.7755 11.7393 5.76084C11.7393 5.67292 11.4755 5.18933 11.3289 4.96952C9.80474 2.85932 7.4305 1.70164 4.63124 1.70164C4.10363 1.70164 3.56136 1.7456 3.00444 1.81887C2.0225 1.96542 1.01125 2.24385 0 2.63951V1.78957C1.56817 1.21805 3.12169 0.939625 4.61658 0.939625C4.73383 0.939625 4.83642 0.939625 4.95366 0.939625C8.60296 1.0422 11.0212 2.55158 12.135 5.40914C12.3109 5.86342 12.8531 5.99531 13.0437 5.99531C13.0583 5.99531 13.073 5.99531 13.0876 5.99531C13.1023 5.90739 13.0144 5.36518 12.9118 5.11606C12.0471 2.8007 10.2444 1.2034 7.75292 0.514654H9.76077C11.7979 1.56975 13.0144 3.24033 13.4833 5.64361C13.5859 6.18581 14.1868 6.42028 14.3334 6.42028C14.3627 6.33236 14.3627 5.76084 14.3041 5.49707C13.9377 3.46014 12.8678 1.73095 11.2263 0.514654H12.3109C13.7911 1.93611 14.6558 3.81184 14.7437 5.7755C14.7731 6.36166 15.3593 6.72802 15.4619 6.74267C15.5058 6.65475 15.6231 6.06858 15.6084 5.7755C15.5058 3.82649 14.7731 2.00938 13.4687 0.514654H14.4506C15.4912 1.95076 15.9895 3.57737 15.9162 5.24795C15.9016 5.6143 16.1067 5.89273 16.2386 6.02462C16.3705 6.17116 16.5024 6.24443 16.5318 6.24443C16.5904 6.17116 16.7369 5.59965 16.7516 5.32122C16.8542 3.65065 16.4145 1.98007 15.4619 0.5H16.3412C17.118 1.92145 17.3818 3.47479 17.1326 4.98417C17.0887 5.27726 17.2206 5.52638 17.3525 5.68757C17.4844 5.84877 17.6309 5.95135 17.6749 5.966C17.7335 5.89273 17.9094 5.40914 17.9534 5.11606C18.2318 3.56272 18.012 2.00938 17.2939 0.514654H18.0999C18.8034 2.19988 18.8767 3.94373 18.3198 5.55569C18.2025 5.87808 18.3198 6.20047 18.4077 6.36166C18.4956 6.52286 18.5836 6.61079 18.6129 6.64009C18.6862 6.59613 18.9939 6.15651 19.0819 5.89273C19.6974 4.17819 19.6681 2.31712 18.9939 0.529308H19.8C20.5181 2.63951 20.3862 4.69109 19.4043 6.4789C19.2431 6.77198 19.3017 7.09437 19.3603 7.25557C19.4189 7.44607 19.5069 7.56331 19.5362 7.59261C19.6095 7.54865 19.9612 7.15299 20.0931 6.91852C19.7853 5.92204 20.181 5.62896 20.7819 5.18933C20.8699 5.11606 20.9725 5.05744 21.0751 4.96952C22.013 4.23681 22.7605 4.19285 22.8924 4.19285H22.907C23.1122 4.19285 23.2734 4.29543 23.376 4.47128C23.7278 5.0721 23.4639 6.42028 23.0096 7.25557C22.6432 7.92966 22.4087 7.97362 22.1303 8.00293C21.9397 8.03224 21.7346 8.06155 21.4268 8.36929C21.1776 8.61841 21.163 8.95545 21.163 9.14596C21.163 9.33646 21.207 9.45369 21.2363 9.483C21.3242 9.46835 21.7785 9.20457 21.9984 8.98476C24.0942 6.90387 24.4752 3.6653 24.1528 1.51114C24.1088 1.18875 24.0355 0.8517 23.9622 0.514654H24.7537C24.9588 1.52579 25.0614 2.50762 25.0321 3.46014C24.9588 6.24443 23.8303 8.51583 21.8665 9.84936C21.588 10.0399 21.5001 10.3476 21.4708 10.5234C21.4414 10.714 21.4561 10.8605 21.4854 10.8898C21.588 10.8898 22.101 10.6846 22.3061 10.5381C24.5045 9.08734 25.7649 6.56682 25.8528 3.47479C25.8822 2.53693 25.7942 1.52579 25.589 0.514654H26.3951C26.7175 2.28781 26.7029 3.97304 26.3805 5.55569C25.8089 8.35463 24.2261 10.4355 21.9397 11.388C21.632 11.5199 21.5001 11.7984 21.4414 11.9596C21.3682 12.1354 21.3682 12.2966 21.3682 12.3406C21.3682 12.3406 21.3828 12.3406 21.3975 12.3406C21.5587 12.3406 22.0423 12.238 22.2475 12.1501C24.7976 11.1096 26.5563 8.82356 27.2012 5.71688C27.5383 4.09027 27.5529 2.33177 27.2451 0.514654H28.0805C28.4762 3.1524 28.2271 5.68757 27.3624 7.85639C26.2779 10.5821 24.3286 12.3552 21.8665 12.8681C21.544 12.9414 21.3389 13.1905 21.2509 13.337C21.1483 13.5129 21.1044 13.6594 21.119 13.6887C21.1337 13.6887 21.2509 13.7034 21.4708 13.7034C21.6759 13.7034 21.8811 13.6887 21.9837 13.6741C24.739 13.1465 26.9081 11.1829 28.1098 8.16413ZM7.72361 8.45721C7.72361 8.39859 7.12272 8.14947 6.85892 8.10551C6.37528 8.00293 6.21406 7.95897 6.00888 7.75381C5.75973 7.50469 5.74508 7.13834 5.75973 6.6694C5.75973 6.15651 5.61317 5.21864 5.24678 5.20399C4.71917 5.20399 4.61658 5.83412 4.60192 6.62544C4.60192 7.56331 5.20281 7.66589 5.20281 8.26671C5.20281 8.44256 5.10022 8.64771 5.27609 8.64771C5.73042 8.64771 6.1701 8.69168 6.62443 8.7796C7.21066 8.91149 7.73827 8.54514 7.72361 8.45721ZM8.35381 7.43142C8.30984 7.3728 7.9581 7.15299 7.67964 7.00645C7.63568 6.99179 7.60636 6.97714 7.5624 6.96249C7.28394 6.8306 7.03479 6.71336 6.96151 6.18581V6.11254L7.02013 6.1272C7.51843 6.30305 7.97276 6.55217 8.41243 6.8306C8.52968 6.91852 8.67624 6.96249 8.83745 6.96249C9.17454 6.96249 9.46765 6.78664 9.51162 6.74267C9.46765 6.65475 9.07195 6.28839 8.83745 6.14185C8.01673 5.59965 7.12272 5.21864 6.15544 5.02814C6.37528 5.30656 6.5658 5.71688 6.74167 6.30305C6.82961 6.61079 6.87357 6.85991 6.90289 7.05041C6.97616 7.44607 7.00548 7.63658 7.29859 7.73916C7.37187 7.76846 7.47446 7.78312 7.5624 7.78312C7.97276 7.78312 8.3245 7.50469 8.35381 7.43142ZM11.1531 13.8206C11.0358 13.6301 10.86 13.5862 10.7134 13.4689C9.80474 12.8974 8.77883 11.9889 9.02798 10.7872C8.76417 10.8751 8.4564 10.9484 8.33916 11.2122C8.04604 12.2966 8.83745 13.2198 9.68749 13.8792C10.2151 14.3335 9.13057 14.5826 9.30644 15.2128C9.39437 15.4912 9.54093 16.0188 9.92198 15.9308C10.1858 15.0809 10.9479 14.6852 11.1531 13.8206ZM19.9026 10.5674C18.8767 10.8165 17.0301 10.0838 16.4438 11.3294C15.9895 10.714 15.242 10.3476 14.4213 10.4062C13.7765 10.4648 13.2782 10.6846 12.8971 11.1389C12.7066 11.3734 12.604 11.7544 12.3109 11.9596C11.9445 10.6846 10.4642 10.8458 9.33575 10.7433C9.30644 13.0733 11.8126 11.5199 12.5014 12.7216C12.5161 12.7509 12.5307 12.7802 12.5307 12.7802C12.9997 11.6958 13.8058 11.388 14.8024 11.388H14.817C15.4765 11.4174 15.7257 11.6665 15.8869 11.9449L16.693 14.5827C16.7809 14.8025 16.7809 15.286 17.0887 14.9344C17.4258 14.2016 16.8395 13.3957 16.8249 12.6776V12.663C16.8249 12.1354 17.2499 11.7104 17.7775 11.7104C17.9534 11.7104 18.1292 11.7544 18.2611 11.8423C18.8034 11.6372 19.1258 10.7726 19.7121 11.0363C19.5948 12.194 17.6602 12.2966 18.0999 13.6155C19.3896 13.3664 20.8259 11.7251 19.9026 10.5674ZM21.4121 7.68054C21.8518 7.21161 22.2329 6.71336 22.5113 6.18581C22.7898 5.65827 22.3501 5.13072 22.2768 5.14537C21.3535 5.23329 21.5294 6.3177 20.7819 7.16764C20.3716 7.63658 20.5474 8.25205 20.6207 8.28136C20.694 8.31067 21.2216 7.8857 21.4121 7.68054ZM22.6725 3.62134L22.7312 3.59203C22.8924 3.5041 22.995 3.51876 23.0829 3.51876H23.0976C23.2148 3.51876 23.3174 3.57737 23.376 3.65065L23.4346 3.73857V3.63599C23.4493 3.10844 23.42 2.2585 23.332 1.64302C23.2734 1.29132 23.2001 0.910317 23.1122 0.529308H22.3208C22.5846 1.51114 22.7018 2.50762 22.6725 3.56272V3.62134ZM21.0164 4.42732L21.0018 4.52989L21.0751 4.45662C21.163 4.3687 21.3828 4.23681 21.5734 4.11958C21.6613 4.07562 21.7346 4.017 21.7932 3.98769L21.8078 3.97304V3.95838C21.8958 2.87397 21.7639 1.59906 21.4561 0.514654H20.6793C21.0897 1.77491 21.1923 3.02052 21.0164 4.42732ZM54.3291 18.3195V25.4707H56.1024C61.6863 25.4707 65.4528 22.745 65.4528 17.7919V15.8136C65.4528 13.4543 66.8012 12.0328 69.0289 12.0328H69.3366V4.9109H67.5047C61.0854 4.9109 57.7585 8.26671 57.7585 13.4543V15.1395C57.7585 17.0739 56.63 18.3195 54.7248 18.3195H54.3291ZM68.4866 18.3195V25.4707H70.2746C75.8438 25.4707 79.625 22.745 79.625 17.7919V15.8136C79.625 13.4543 80.9733 12.0328 83.201 12.0328H83.5088V4.9109H81.6768C75.2576 4.9109 71.9307 8.26671 71.9307 13.4543V15.1395C71.9307 17.0739 70.8022 18.3195 68.8969 18.3195H68.4866ZM43.2346 25.4853V18.3341H42.1648C40.4354 18.3341 39.0284 16.9273 39.0284 15.1981C39.0284 13.4689 40.4354 12.0621 42.1648 12.0621C44.0847 12.0621 45.052 13.3224 45.052 15.1981V25.5H52.5118V15.1981C52.5118 9.49766 47.8659 4.86694 42.1648 4.86694C36.4636 4.86694 31.8324 9.51231 31.8324 15.1981C31.8324 20.8986 36.4783 25.5 42.1648 25.5H43.2346V25.4853ZM95.5998 25.4853V18.3341H94.53C92.8006 18.3341 91.3936 16.9273 91.3936 15.1981C91.3936 13.4689 92.8006 12.0621 94.53 12.0621C96.4352 12.0621 97.4025 13.3224 97.4025 15.1981V25.5H104.862V15.1981C104.862 9.49766 100.231 4.86694 94.53 4.86694C88.8288 4.86694 84.183 9.51231 84.183 15.1981C84.183 20.8986 88.8288 25.5 94.53 25.5H95.5998V25.4853ZM0.556921 25.4853C0.27846 24.6061 0.0293116 23.4631 0 22.408V25.4853H0.556921ZM0 0.968933C0.439674 0.793083 1.20178 0.543962 2.03716 0.514654H0V0.968933ZM28.5642 24.9285C27.9926 25.163 27.1279 25.4267 25.9554 25.4853H28.5642V24.9285Z"
    fill="white" />
</svg>