<svg width="286" height="26" viewBox="0 0 286 26" fill="none" xmlns="http://www.w3.org/2000/svg">
<path d="M7.57133 7.28448C7.47669 7.28448 7.38205 7.26817 7.29393 7.23881C7.00675 7.13442 6.97411 6.95173 6.90558 6.55375C6.86968 6.35801 6.82725 6.11335 6.74567 5.8067C6.58249 5.22277 6.39321 4.80521 6.16476 4.52466C7.12423 4.71713 8.03149 5.08902 8.85715 5.63381C9.08234 5.77082 9.48375 6.14597 9.52617 6.23079C9.48048 6.28298 9.18024 6.45262 8.8441 6.45262C8.68092 6.45262 8.53733 6.41347 8.41332 6.33518C7.98253 6.05137 7.51585 5.81649 7.02306 5.63381L6.96432 5.61097L6.97411 5.67295C7.05244 6.21448 7.29393 6.32213 7.5746 6.44936C7.61049 6.46567 7.64966 6.48524 7.68882 6.50481C7.97274 6.64182 8.32194 6.86365 8.37089 6.92564C8.33173 7.00067 7.97601 7.28448 7.57133 7.28448ZM28.0955 0.00326219C28.4904 2.64238 28.2424 5.18036 27.3808 7.34646C26.3006 10.0704 24.3457 11.8483 21.8753 12.3572C21.5489 12.4224 21.3499 12.6801 21.2617 12.8269C21.154 12.9998 21.1214 13.1434 21.1247 13.1825C21.1573 13.1923 21.2781 13.2086 21.4967 13.2086C21.7056 13.2086 21.9046 13.1923 22.0189 13.1727C24.77 12.6443 26.95 10.6804 28.1543 7.64984C28.3174 7.23881 28.4643 6.79189 28.5948 6.31887V0.00326219H28.0955ZM5.57407 11.1273C5.90694 11.0588 6.1256 10.7913 6.22677 10.638C6.32794 10.4847 6.36384 10.364 6.36384 10.3314C6.31815 10.3085 6.09623 10.2759 5.81883 10.2759C5.68176 10.2759 5.56101 10.2857 5.46637 10.302C3.16886 10.7489 1.27603 12.181 0 14.4483V16.4251C0.0358986 16.3208 0.0750606 16.2229 0.114223 16.125C1.19444 13.4043 3.13297 11.6265 5.57407 11.1273ZM5.89715 9.71481C6.23656 9.70829 6.48459 9.49298 6.60207 9.36249C6.73587 9.2157 6.79462 9.08521 6.80115 9.04932C6.73588 9.00365 6.26267 8.88295 5.93632 8.88295C3.6845 8.88948 1.63502 9.86813 0 11.708V13.0325C1.53058 10.9186 3.61923 9.74417 5.89715 9.71481ZM22.2016 15.1757C21.9177 15.1757 21.6273 15.1561 21.3433 15.1203C21.3074 15.117 21.2715 15.1137 21.2324 15.1137C20.7494 15.1137 20.361 15.528 20.3316 15.6063C20.3936 15.6716 20.8669 15.8934 21.1638 15.9326C21.4902 15.9782 21.8165 16.0043 22.1298 16.0076H22.2179C24.5481 16.0076 26.751 14.9408 28.5916 12.9183V11.6297C28.4121 11.8613 28.2358 12.0766 28.0629 12.2756C26.3724 14.1742 24.3457 15.1757 22.2016 15.1757ZM22.8772 18.2422C22.1135 18.2422 21.3596 18.128 20.6319 17.9029C20.5568 17.8801 20.4818 17.867 20.4034 17.867C19.9727 17.867 19.6202 18.2161 19.5843 18.2879C19.6463 18.3531 20.126 18.6141 20.3806 18.6924C21.1899 18.9533 21.9895 19.0904 22.7597 19.1001C22.7923 19.1001 22.8217 19.1034 22.8543 19.1034C24.3555 19.1034 25.8894 18.6858 27.4102 17.8638C27.7953 17.655 28.1934 17.4103 28.5981 17.133V16.1152C28.0825 16.5067 27.5505 16.8525 27.0186 17.1363C25.6512 17.8703 24.2609 18.2422 22.8772 18.2422ZM22.6422 16.6861C21.9471 16.6861 21.2585 16.5785 20.5927 16.3697C20.5079 16.3436 20.4198 16.3305 20.3251 16.3305C19.8943 16.3305 19.5517 16.6078 19.5158 16.6731C19.568 16.7481 20.0053 17.0547 20.2729 17.1363C21.0431 17.3842 21.8133 17.5147 22.5639 17.5212H22.652C24.5644 17.5212 26.5029 16.7872 28.2652 15.3943C28.3762 15.3062 28.4904 15.2116 28.5948 15.1235V14.0079C28.3142 14.2786 28.0302 14.5265 27.7529 14.7451C26.1472 16.0174 24.3784 16.6861 22.6422 16.6861ZM4.60481 3.60799C6.44216 3.60799 8.09023 4.24085 9.36626 5.43481C9.54249 5.59792 9.78725 5.63381 9.96022 5.63381C10.2278 5.63381 10.44 5.55551 10.4824 5.52289C10.453 5.43808 10.1201 4.99768 9.92106 4.81826C8.44922 3.49055 6.60207 2.78591 4.5787 2.78591C3.53764 2.78591 2.45416 2.9686 1.36088 3.33396C0.917045 3.48076 0.460154 3.66018 0 3.87875V4.79869C0.545005 4.52466 1.09001 4.29631 1.62196 4.12015C2.64018 3.78088 3.64534 3.60799 4.60481 3.60799ZM21.9634 10.8925C21.6599 11.0197 21.5163 11.31 21.4608 11.4699C21.3955 11.6558 21.3858 11.8091 21.3955 11.8515C21.3955 11.8515 21.4053 11.8515 21.4184 11.8515C21.5718 11.8515 22.058 11.7504 22.2734 11.6591C24.8222 10.6217 26.5813 8.33164 27.2242 5.21298C27.5603 3.58189 27.5734 1.82683 27.2666 0H26.4279C26.7412 1.77137 26.7346 3.46771 26.4115 5.04661C25.8339 7.85536 24.2544 9.93011 21.9634 10.8925ZM19.4244 5.95024C19.2645 6.24384 19.3297 6.56027 19.3852 6.72664C19.4472 6.91585 19.5321 7.03329 19.5647 7.05939C19.643 7.01371 19.9955 6.61573 20.1326 6.38737C19.8258 5.38914 20.2239 5.09881 20.8212 4.65841C20.9125 4.58991 21.0104 4.51814 21.1116 4.43984C22.045 3.70911 22.7956 3.66997 22.9359 3.66997H22.949C23.1513 3.67323 23.3112 3.77109 23.4189 3.95378C23.7714 4.55728 23.507 5.90783 23.0469 6.73969C22.6716 7.42149 22.4399 7.45411 22.169 7.49326C21.9732 7.52262 21.7676 7.55198 21.4608 7.86841C21.2128 8.12286 21.1867 8.46213 21.1932 8.64155C21.1997 8.82749 21.2422 8.9482 21.2617 8.97429C21.3531 8.96124 21.81 8.68722 22.0221 8.4817C24.1206 6.40042 24.4991 3.15128 24.1826 0.998231C24.1304 0.678536 24.0651 0.34253 23.99 0.00326219H23.1383C23.2329 0.388201 23.3112 0.766615 23.3602 1.12219C23.4483 1.73549 23.4777 2.58366 23.4679 3.11539L23.4646 3.22305L23.3993 3.13823C23.3341 3.05341 23.2362 3.00448 23.1154 3.00122H23.1056C23.024 2.99796 22.9163 2.99143 22.7564 3.07625L22.7009 3.10561L22.7042 3.04036C22.7238 1.97689 22.6063 0.98192 22.3485 0H21.4869C21.7839 1.07326 21.9177 2.35857 21.8329 3.44488V3.46445L21.8165 3.47424C21.7578 3.51664 21.6795 3.55905 21.5946 3.61125C21.4086 3.72216 21.1965 3.85265 21.1018 3.94725L21.0235 4.02881L21.0333 3.91789C21.2128 2.51515 21.1084 1.26899 20.7037 0.00326219H19.8193C20.5438 2.11064 20.4067 4.16582 19.4244 5.95024ZM21.7513 13.7534C21.3988 13.7665 21.1475 13.9948 21.03 14.1253C20.9093 14.2623 20.8538 14.3765 20.8505 14.4124C20.9256 14.4613 21.4412 14.582 21.7088 14.582H21.7252C24.4567 14.5168 26.8978 12.9933 28.5916 10.289V8.55999C28.3925 8.98408 28.1738 9.39185 27.9356 9.77679C26.4148 12.2463 24.2185 13.6588 21.7513 13.7534ZM4.61133 2.01604C7.14708 2.01604 9.30425 3.06646 10.6815 4.97484C10.8871 5.26192 11.2493 5.30433 11.4451 5.30433C11.6181 5.30433 11.7323 5.27497 11.7617 5.25539C11.7486 5.16079 11.4875 4.67798 11.3342 4.46268C9.81989 2.35204 7.44406 1.18744 4.63744 1.18744C4.10875 1.18744 3.56048 1.22658 3.00895 1.30814C2.02011 1.45494 1.00516 1.73222 0 2.13021V3.02732C1.04432 2.58039 2.09843 2.28027 3.1297 2.12695C3.63228 2.05518 4.1316 2.01604 4.61133 2.01604ZM1.08348 18.4216C1.70029 15.44 3.39078 13.3195 5.8482 12.4583C6.16476 12.3474 6.32794 12.0636 6.39973 11.9037C6.48132 11.7211 6.49438 11.5743 6.48785 11.5384C6.47806 11.5351 6.45848 11.5319 6.40952 11.5319C6.21045 11.5319 5.83188 11.5873 5.60018 11.6656C2.84904 12.5986 0.956207 14.9408 0.274134 18.2552C0.114223 19.0316 0.026108 19.857 0.013054 20.7149L0.00652701 21.077L0 21.0411V24.9917H1.42615C0.779978 22.7114 0.662492 20.467 1.08348 18.4216ZM4.35678 8.22073C4.39921 8.10003 4.25887 7.92713 4.07612 7.7053L4.02064 7.64006C3.13949 6.55375 3.59965 5.38914 4.18381 4.38765C2.82946 4.46594 1.449 4.87698 0.0881146 5.61097C0.0685336 5.62076 0.0489526 5.63381 0.0293715 5.64359C0.019581 5.65012 0.00979052 5.65664 0 5.6599V6.61573C0.176229 6.50808 0.336141 6.41673 0.482999 6.33844C1.23361 5.93393 1.99727 5.63381 2.75766 5.4446L2.81967 5.42829L2.80661 5.48701C2.75114 5.70558 2.74134 5.94045 2.77398 6.1949L2.77724 6.22753L2.74461 6.23731C1.81451 6.49503 0.890937 6.92564 0 7.51936V8.53063C0.959471 7.81621 1.96137 7.31384 2.98284 7.03981L3.01548 7.03003L3.02853 7.05939C3.11665 7.26164 3.22434 7.4639 3.34836 7.66942L3.37446 7.71182L3.32551 7.72487C2.15065 8.04131 1.03127 8.63502 0 9.49624V10.6054C1.18465 9.46036 2.50311 8.73289 3.91621 8.43929C4.18055 8.3871 4.32741 8.31533 4.35678 8.22073ZM22.5345 23.0409C21.1377 22.9985 19.8715 22.7049 18.7782 22.1601C18.664 22.1046 18.54 22.0753 18.4029 22.0753C18.0374 22.0753 17.7143 22.2808 17.6719 22.346C17.7176 22.4243 18.1484 22.7766 18.3768 22.8941C19.5549 23.4943 20.9452 23.8205 22.5084 23.8662C22.5769 23.8695 22.6455 23.8695 22.714 23.8695C24.6068 23.8923 26.6433 23.465 28.5883 22.6429V21.7393C26.5845 22.6429 24.4828 23.0963 22.5345 23.0409ZM6.56944 15.117C6.83052 14.905 6.886 14.5787 6.89905 14.4058C6.9121 14.2069 6.87621 14.0666 6.85662 14.0372C6.75546 14.047 6.27246 14.2884 6.06686 14.458C3.80525 16.2979 2.82946 19.1425 3.31572 22.47C3.43973 23.3149 3.66165 24.1337 3.97169 24.9949H4.8561C4.5069 24.0946 4.2654 23.2333 4.13486 22.3525C3.69429 19.335 4.55585 16.7677 6.56944 15.117ZM10.3257 19.6939C10.342 19.3644 10.1462 19.1067 10.0288 18.986C9.88842 18.8359 9.75462 18.7641 9.71546 18.7543C9.66324 18.8294 9.51312 19.3579 9.49354 19.6221C9.35321 21.5142 9.92758 23.3443 11.1579 24.9949H12.2218C10.8446 23.3834 10.1854 21.5761 10.3257 19.6939ZM25.0572 2.95228C24.9756 5.74146 23.853 8.01521 21.8916 9.34944C21.6142 9.53865 21.5293 9.85508 21.5032 10.028C21.4739 10.2237 21.4967 10.364 21.513 10.4031C21.6142 10.3966 22.1266 10.1944 22.3354 10.0541C24.535 8.59914 25.798 6.08399 25.8861 2.97838C25.9122 2.02256 25.8241 1.02107 25.6218 0.00326219H24.7798C24.9887 1.00802 25.0833 1.99972 25.0572 2.95228ZM7.20256 16.3893C7.37226 16.1805 7.37226 15.9065 7.33962 15.7172C7.30046 15.4791 7.20582 15.3029 7.16992 15.2703C7.09812 15.2997 6.74893 15.6324 6.52375 15.9032C4.72556 18.0791 4.30456 20.9987 5.3391 24.1174C5.437 24.411 5.55449 24.6785 5.68503 24.9917H6.59228C6.40952 24.5904 6.24961 24.2348 6.1256 23.8532C5.19224 21.0477 5.57407 18.3922 7.20256 16.3893ZM9.26183 18.1508C9.45764 17.655 9.13782 17.1004 9.05949 17.0482C8.98117 17.0939 8.63197 17.5049 8.52754 17.7659C7.58439 20.1016 7.8422 22.6396 9.24877 24.9949H10.2278C8.72988 22.7538 8.38395 20.3528 9.26183 18.1508ZM12.7505 23.067C12.5808 22.7962 12.4274 22.7179 12.2349 22.62C12.1598 22.5809 12.075 22.5385 11.9803 22.4798C11.7682 22.3428 11.5495 22.1275 11.3864 21.8958C11.5104 22.3656 11.6801 22.9202 12.0325 23.4976C12.3589 24.0326 12.7701 24.5089 13.2531 24.9949H14.4834C13.7916 24.4045 13.2107 23.7879 12.7505 23.067ZM20.4393 24.3947C19.3102 24.1631 18.2822 23.7651 17.388 23.2138C17.2574 23.1322 17.1008 23.0898 16.9343 23.0898C16.6015 23.0898 16.3143 23.2464 16.2686 23.2986C16.311 23.3801 16.7091 23.7683 16.9278 23.9053C17.6947 24.3882 18.5824 24.7242 19.5712 24.9917H28.5883V23.5367C26.7281 24.2577 24.7765 24.6426 22.9359 24.6426C22.0776 24.6426 21.2324 24.5578 20.4393 24.3947ZM14.5095 23.2431C14.255 23.2431 14.0461 23.3279 14.007 23.3606C14.0298 23.4454 14.3398 23.8727 14.5454 24.0717C14.8979 24.4143 15.3026 24.6948 15.7464 24.9949H17.401C16.5264 24.5676 15.7562 24.0815 15.1166 23.4682C14.9273 23.2823 14.6792 23.2431 14.5095 23.2431ZM8.10981 17.4495C8.29583 17.1298 8.24035 16.797 8.1914 16.6274C8.13918 16.4415 8.06412 16.3371 8.04454 16.3273C7.99232 16.3338 7.6366 16.6241 7.42774 16.9765C6.02769 19.3546 6.03422 22.1731 7.43753 24.9949H8.37089C8.36436 24.9819 8.35457 25.0112 8.34805 24.9949C6.92189 22.3558 6.83704 19.6743 8.10981 17.4495ZM17.1595 4.4953C17.1073 4.79216 17.2476 5.04335 17.3749 5.19994C17.5087 5.36305 17.6523 5.46091 17.698 5.47396C17.7535 5.40545 17.9264 4.91612 17.9787 4.62253C18.256 3.05341 18.0341 1.50061 17.3096 0.00326219H16.3697C17.1497 1.4321 17.4206 2.98491 17.1595 4.4953ZM15.9324 4.74649C15.9161 5.10859 16.125 5.38588 16.2523 5.51963C16.3893 5.66643 16.5166 5.73494 16.5558 5.74472C16.608 5.66643 16.7646 5.10207 16.7809 4.82478C16.8854 3.14802 16.4415 1.48104 15.4984 0.00326219H14.4704C15.5114 1.43536 16.0173 3.07625 15.9324 4.74649ZM18.3376 5.04335C18.2202 5.37283 18.3409 5.68926 18.4225 5.84585C18.5073 6.01222 18.5955 6.10356 18.6248 6.11987C18.6966 6.07094 19.0034 5.63707 19.1013 5.36957C19.7148 3.64713 19.6855 1.79421 19.0099 0.00326219H18.119C18.8272 1.69308 18.9022 3.43509 18.3376 5.04335ZM2.43784 20.5192C2.52595 17.456 3.85094 15.0615 6.16803 13.7762C6.45848 13.6131 6.5727 13.3097 6.61186 13.1401C6.66081 12.9444 6.65102 12.8008 6.63797 12.765C6.5009 12.7682 5.9918 12.9281 5.78619 13.0422C3.19171 14.4385 1.71008 17.0874 1.60891 20.4964C1.56648 21.9676 1.7884 23.4519 2.26814 24.9949H3.13623C2.63039 23.4552 2.39541 21.9807 2.43784 20.5192ZM4.96053 0.430609C8.62218 0.535 11.0404 2.04213 12.1533 4.90308C12.3295 5.35652 12.8811 5.4968 13.0605 5.4968C13.0801 5.4968 13.0932 5.4968 13.0997 5.49353C13.116 5.39893 13.0214 4.86393 12.93 4.61927C12.0521 2.29658 10.2637 0.698109 7.75735 0.00326219H0V1.2853C1.56648 0.71442 3.12317 0.427347 4.62439 0.427347C4.73861 0.427347 4.84957 0.427347 4.96053 0.430609ZM13.4848 5.13795C13.5892 5.67622 14.1897 5.91436 14.3333 5.91436H14.3366C14.3692 5.82628 14.3757 5.25866 14.3235 4.98463C13.945 2.94576 12.8778 1.22658 11.2362 0.00326219H9.76441C11.7976 1.05369 13.0149 2.73698 13.4848 5.13795ZM15.4723 6.24384C15.5212 6.16228 15.6387 5.57183 15.6224 5.27497C15.5278 3.31765 14.7902 1.49735 13.4848 0.00326219H12.3165C13.7981 1.4321 14.6629 3.30134 14.7543 5.27497C14.7837 5.86542 15.3646 6.23079 15.4723 6.24384ZM22.5541 19.9809C21.4804 19.9418 20.4883 19.7167 19.6855 19.2861C19.2743 19.0643 18.8304 18.9599 18.2202 19.4166C17.9591 19.6123 17.8481 19.6547 17.6588 19.6482C17.4859 19.6449 17.2248 19.3709 16.9245 19.2045C16.4122 18.9175 16.3241 18.8653 15.7856 18.6761C15.4266 18.5456 15.58 17.3418 15.7138 17.1037C15.9781 16.6372 17.1758 16.4121 17.463 15.864C17.6556 15.4954 17.2933 15.1301 17.1301 14.905C17.0616 15.6553 16.2816 15.9391 15.5017 15.9326C14.7119 15.9228 13.2661 15.4334 13.2498 15.0159C13.1389 15.192 12.992 15.4987 13.0312 15.789C13.1128 16.4382 14.9371 16.4415 15.221 17.1004C15.3189 17.3255 15.2275 18.0758 15.159 18.3074C15.0774 18.5912 14.8914 18.6434 14.5291 18.7609C13.0018 19.2567 12.8452 20.8128 10.8479 18.9468C12.7179 22.3297 13.3151 19.397 15.1166 19.4198C16.6602 19.4394 17.7013 20.6432 18.5334 21.1814C18.5693 21.201 18.6052 21.2238 18.6444 21.2467C19.1046 21.524 19.643 21.7458 20.3251 21.9448C21.079 22.1601 21.8851 22.2743 22.7271 22.284C23.2949 22.2873 23.8856 22.2482 24.4796 22.1633C25.8437 21.9611 27.2274 21.5207 28.585 20.8519V19.9222C27.1883 20.6595 25.7686 21.1357 24.3588 21.3445C23.8399 21.4196 23.3308 21.4587 22.8445 21.4587C21.0855 21.4587 19.5223 20.9531 18.2038 19.9581C18.1777 19.9385 18.1745 19.9157 18.1745 19.9026C18.1777 19.87 18.2038 19.8407 18.256 19.8146C18.3931 19.7363 18.5432 19.6612 18.7423 19.6612C18.9381 19.6612 19.16 19.7297 19.4342 19.8831C20.4132 20.4148 21.5098 20.679 22.7793 20.6921C23.8562 20.7051 24.9854 20.5192 26.1276 20.1408C26.9533 19.8668 27.779 19.4916 28.585 19.0284V18.0628C27.6974 18.6173 26.7836 19.0512 25.8665 19.3546C24.6329 19.7656 23.5495 19.9679 22.5541 19.9809ZM9.31404 14.706C9.40216 14.9833 9.55554 15.515 9.93411 15.4302C10.1887 14.5853 10.9523 14.1905 11.1579 13.3195C11.0437 13.1303 10.8577 13.0814 10.7174 12.964C9.8101 12.3963 8.79188 11.4797 9.03012 10.289C8.76904 10.377 8.46227 10.439 8.33826 10.713C8.05759 11.7896 8.84084 12.7193 9.69914 13.3783C10.2344 13.8252 9.13782 14.0796 9.31404 14.706ZM18.132 13.1108L18.1353 13.114C19.4081 12.8628 20.8538 11.2219 19.9302 10.0671L19.9237 10.0606C18.9088 10.3118 17.0551 9.58758 16.4611 10.8337C16.0075 10.2205 15.2602 9.84856 14.4443 9.90728C13.7981 9.95621 13.302 10.1748 12.917 10.6347C12.7244 10.8664 12.6167 11.2546 12.3263 11.4568V11.4536C11.9575 10.1878 10.4791 10.3444 9.35647 10.24C9.32057 12.5725 11.8335 11.0197 12.5253 12.2169C12.5417 12.2397 12.5547 12.2756 12.5547 12.2756C13.0247 11.1958 13.8307 10.8827 14.8294 10.8827H14.8392C15.4984 10.9055 15.7431 11.16 15.9031 11.4438L16.7157 14.0861C16.8103 14.3112 16.8103 14.7843 17.1138 14.445C17.4467 13.711 16.8691 12.9085 16.8462 12.1843V12.1582C16.8462 11.6297 17.2737 11.1991 17.8057 11.1991C17.9852 11.1991 18.1549 11.248 18.2985 11.3361H18.3017C18.8467 11.1241 19.1633 10.2661 19.7507 10.5238C19.6169 11.6852 17.6915 11.7928 18.132 13.1108ZM22.5443 5.67948C22.825 5.151 22.3876 4.62579 22.3028 4.63231C21.3792 4.71713 21.5555 5.80997 20.8048 6.65814C20.3936 7.12137 20.5731 7.75097 20.6482 7.77381C20.7233 7.79664 21.2454 7.3856 21.438 7.17682C21.8753 6.71686 22.2571 6.21448 22.5443 5.67948ZM5.27709 8.14896C5.72745 8.15222 6.17782 8.20115 6.63144 8.28597C7.21235 8.39688 7.74103 8.03152 7.73124 7.9467C7.72472 7.88798 7.13076 7.64332 6.86642 7.58786C6.38668 7.48999 6.21698 7.45085 6.01464 7.24859C5.76335 6.99414 5.7503 6.63204 5.75682 6.15576C5.76335 5.63707 5.60997 4.6943 5.24772 4.69103C4.71903 4.68777 4.61786 5.3239 4.60807 6.10682C4.59828 7.05286 5.21182 7.15725 5.20529 7.76076C5.20203 7.9467 5.10086 8.1457 5.27709 8.14896ZM54.7779 17.8311C56.6871 17.8311 57.813 16.5752 57.813 14.644V12.9574C57.813 7.76728 61.1548 4.41048 67.5774 4.41048H69.4148V11.5482H69.108C66.8758 11.5482 65.5312 12.9672 65.5312 15.3258V17.3059C65.5312 22.2677 61.7553 24.9949 56.1715 24.9949H54.3896V17.8311H54.7779ZM68.563 17.8311V24.9949H70.3449C75.9287 24.9949 79.7046 22.2677 79.7046 17.3059V15.3258C79.7046 12.9672 81.0492 11.5482 83.2814 11.5482H83.5882V4.40722H81.7541C75.3282 4.40722 71.9864 7.76402 71.9864 12.9542V14.6407C71.9864 16.5719 70.8572 17.8279 68.9481 17.8279H68.563V17.8311ZM43.2806 24.9949V17.8311H42.2167C40.4838 17.8311 39.074 16.4219 39.074 14.6897C39.074 12.9574 40.4838 11.5482 42.2167 11.5482C44.1356 11.5482 45.1016 12.8041 45.1016 14.6897L45.0984 24.9949H52.5718V14.6864C52.5718 8.98082 47.9278 4.33872 42.2167 4.33872C36.5088 4.33872 31.8616 8.98082 31.8616 14.6864C31.8616 20.392 36.5056 24.9917 42.2167 24.9917H43.2806V24.9949ZM95.7121 24.9949V17.8311H94.6482C92.912 17.8311 91.5022 16.4219 91.5022 14.6897C91.5022 12.9574 92.912 11.5482 94.6482 11.5482C96.5639 11.5482 97.5299 12.8041 97.5299 14.6897L97.5266 24.9949H105V14.6864C105 8.98082 100.356 4.33872 94.6482 4.33872C88.9403 4.33872 84.2931 8.98082 84.2931 14.6864C84.2931 20.392 88.9403 24.9917 94.6482 24.9917H95.7121V24.9949Z" fill="#0D2E68"/>
<line x1="119.5" y1="4" x2="119.5" y2="25" stroke="#A3A2A2"/>
<path d="M141.027 11.5804L136.625 25H133.078L139.093 8.81195H141.35L141.027 11.5804ZM144.685 25L140.271 11.5804L139.915 8.81195H142.195L148.243 25H144.685ZM144.485 18.974V21.5867H135.935V18.974H144.485ZM157.026 22.1204V12.9701H160.228V25H157.215L157.026 22.1204ZM157.382 19.6522L158.327 19.6299C158.327 20.4304 158.234 21.1754 158.049 21.8647C157.864 22.5466 157.586 23.1396 157.215 23.6436C156.844 24.1402 156.377 24.5293 155.814 24.811C155.251 25.0852 154.587 25.2224 153.824 25.2224C153.238 25.2224 152.697 25.1408 152.201 24.9778C151.712 24.8073 151.289 24.5442 150.933 24.1884C150.585 23.8252 150.311 23.3619 150.111 22.7986C149.918 22.2279 149.821 21.5423 149.821 20.7417V12.9701H153.023V20.764C153.023 21.1198 153.064 21.42 153.146 21.6646C153.235 21.9092 153.357 22.1093 153.513 22.2649C153.668 22.4206 153.85 22.5318 154.057 22.5985C154.272 22.6652 154.51 22.6985 154.769 22.6985C155.429 22.6985 155.948 22.5651 156.326 22.2983C156.711 22.0315 156.982 21.6683 157.137 21.2087C157.3 20.7417 157.382 20.2229 157.382 19.6522ZM169.067 12.9701V15.2383H162.062V12.9701H169.067ZM163.797 10.0016H166.999V21.3755C166.999 21.7238 167.043 21.9907 167.132 22.176C167.228 22.3613 167.369 22.491 167.555 22.5651C167.74 22.6318 167.973 22.6652 168.255 22.6652C168.455 22.6652 168.633 22.6578 168.789 22.6429C168.952 22.6207 169.089 22.5985 169.2 22.5762L169.211 24.9333C168.937 25.0222 168.64 25.0927 168.322 25.1445C168.003 25.1964 167.651 25.2224 167.266 25.2224C166.561 25.2224 165.946 25.1075 165.42 24.8777C164.901 24.6405 164.501 24.2625 164.219 23.7436C163.938 23.2248 163.797 22.5429 163.797 21.6979V10.0016ZM170.59 19.1074V18.8739C170.59 17.9919 170.716 17.1802 170.968 16.439C171.22 15.6904 171.586 15.0418 172.068 14.4933C172.55 13.9448 173.143 13.5186 173.847 13.2147C174.551 12.9034 175.359 12.7478 176.271 12.7478C177.183 12.7478 177.994 12.9034 178.706 13.2147C179.417 13.5186 180.014 13.9448 180.496 14.4933C180.985 15.0418 181.356 15.6904 181.608 16.439C181.86 17.1802 181.986 17.9919 181.986 18.8739V19.1074C181.986 19.982 181.86 20.7936 181.608 21.5423C181.356 22.2835 180.985 22.932 180.496 23.4879C180.014 24.0364 179.421 24.4626 178.717 24.7665C178.013 25.0704 177.205 25.2224 176.293 25.2224C175.381 25.2224 174.57 25.0704 173.858 24.7665C173.154 24.4626 172.557 24.0364 172.068 23.4879C171.586 22.932 171.22 22.2835 170.968 21.5423C170.716 20.7936 170.59 19.982 170.59 19.1074ZM173.792 18.8739V19.1074C173.792 19.6114 173.836 20.0821 173.925 20.5194C174.014 20.9567 174.155 21.3421 174.348 21.6757C174.548 22.0018 174.807 22.2575 175.126 22.4428C175.444 22.6281 175.834 22.7208 176.293 22.7208C176.738 22.7208 177.12 22.6281 177.438 22.4428C177.757 22.2575 178.013 22.0018 178.206 21.6757C178.398 21.3421 178.539 20.9567 178.628 20.5194C178.724 20.0821 178.773 19.6114 178.773 19.1074V18.8739C178.773 18.3847 178.724 17.9251 178.628 17.4952C178.539 17.0579 178.395 16.6725 178.194 16.339C178.002 15.998 177.746 15.7312 177.427 15.5384C177.109 15.3457 176.723 15.2494 176.271 15.2494C175.819 15.2494 175.433 15.3457 175.115 15.5384C174.803 15.7312 174.548 15.998 174.348 16.339C174.155 16.6725 174.014 17.0579 173.925 17.4952C173.836 17.9251 173.792 18.3847 173.792 18.8739Z" fill="#0D2E68"/>
<path d="M190.958 19.2297H186.833V16.628H190.958C191.595 16.628 192.114 16.5243 192.514 16.3167C192.915 16.1018 193.207 15.8053 193.393 15.4273C193.578 15.0492 193.671 14.623 193.671 14.1487C193.671 13.6669 193.578 13.2185 193.393 12.8034C193.207 12.3883 192.915 12.0548 192.514 11.8027C192.114 11.5507 191.595 11.4247 190.958 11.4247H187.989V25H184.654V8.81195H190.958C192.225 8.81195 193.311 9.04173 194.215 9.50128C195.127 9.95342 195.824 10.5797 196.306 11.3802C196.787 12.1808 197.028 13.0962 197.028 14.1264C197.028 15.1715 196.787 16.0758 196.306 16.8393C195.824 17.6027 195.127 18.192 194.215 18.6071C193.311 19.0221 192.225 19.2297 190.958 19.2297ZM205.989 22.2872V16.9282C205.989 16.5428 205.926 16.2129 205.8 15.9387C205.674 15.657 205.478 15.4384 205.211 15.2827C204.951 15.1271 204.614 15.0492 204.199 15.0492C203.843 15.0492 203.536 15.1122 203.276 15.2383C203.017 15.3568 202.817 15.531 202.676 15.7608C202.535 15.9832 202.465 16.2463 202.465 16.5502H199.263C199.263 16.0388 199.381 15.5533 199.618 15.0937C199.856 14.6342 200.2 14.2302 200.652 13.8818C201.105 13.5261 201.642 13.2481 202.265 13.048C202.895 12.8478 203.599 12.7478 204.377 12.7478C205.311 12.7478 206.141 12.9034 206.868 13.2147C207.594 13.5261 208.165 13.993 208.58 14.6156C209.002 15.2383 209.213 16.0165 209.213 16.9504V22.0982C209.213 22.7578 209.254 23.2989 209.336 23.7214C209.417 24.1365 209.536 24.4997 209.692 24.811V25H206.456C206.3 24.6739 206.182 24.2662 206.1 23.777C206.026 23.2804 205.989 22.7838 205.989 22.2872ZM206.412 17.6731L206.434 19.4854H204.644C204.221 19.4854 203.854 19.5336 203.543 19.6299C203.232 19.7263 202.976 19.8634 202.776 20.0413C202.576 20.2118 202.428 20.4119 202.331 20.6417C202.242 20.8715 202.198 21.1235 202.198 21.3977C202.198 21.672 202.261 21.9203 202.387 22.1426C202.513 22.3576 202.694 22.5281 202.932 22.6541C203.169 22.7727 203.447 22.832 203.766 22.832C204.247 22.832 204.666 22.7356 205.022 22.5429C205.378 22.3502 205.652 22.113 205.845 21.8313C206.045 21.5497 206.149 21.2828 206.156 21.0308L207.001 22.3872C206.882 22.6911 206.719 23.0061 206.512 23.3323C206.312 23.6584 206.056 23.966 205.745 24.2551C205.433 24.5367 205.059 24.7702 204.622 24.9555C204.184 25.1334 203.665 25.2224 203.065 25.2224C202.302 25.2224 201.609 25.0704 200.986 24.7665C200.371 24.4552 199.882 24.029 199.518 23.4879C199.163 22.9394 198.985 22.3168 198.985 21.6201C198.985 20.99 199.103 20.4304 199.341 19.9412C199.578 19.452 199.926 19.0407 200.386 18.7071C200.853 18.3662 201.434 18.1104 202.131 17.94C202.828 17.7621 203.636 17.6731 204.555 17.6731H206.412ZM215.384 15.594V25H212.182V12.9701H215.195L215.384 15.594ZM219.008 12.8923L218.953 15.8609C218.797 15.8386 218.608 15.8201 218.386 15.8053C218.171 15.783 217.974 15.7719 217.796 15.7719C217.344 15.7719 216.951 15.8312 216.618 15.9498C216.292 16.061 216.017 16.2278 215.795 16.4501C215.58 16.6725 215.417 16.943 215.306 17.2618C215.202 17.5805 215.143 17.9437 215.128 18.3513L214.483 18.1512C214.483 17.3729 214.561 16.6577 214.717 16.0054C214.872 15.3457 215.098 14.7713 215.395 14.2821C215.699 13.7929 216.069 13.4149 216.507 13.148C216.944 12.8812 217.444 12.7478 218.008 12.7478C218.185 12.7478 218.367 12.7626 218.552 12.7923C218.738 12.8145 218.89 12.8478 219.008 12.8923ZM227.469 12.9701V15.2383H220.464V12.9701H227.469ZM222.199 10.0016H225.401V21.3755C225.401 21.7238 225.445 21.9907 225.534 22.176C225.631 22.3613 225.771 22.491 225.957 22.5651C226.142 22.6318 226.376 22.6652 226.657 22.6652C226.857 22.6652 227.035 22.6578 227.191 22.6429C227.354 22.6207 227.491 22.5985 227.602 22.5762L227.613 24.9333C227.339 25.0222 227.043 25.0927 226.724 25.1445C226.405 25.1964 226.053 25.2224 225.668 25.2224C224.964 25.2224 224.348 25.1075 223.822 24.8777C223.303 24.6405 222.903 24.2625 222.621 23.7436C222.34 23.2248 222.199 22.5429 222.199 21.6979V10.0016ZM236.296 21.6757C236.296 21.4459 236.23 21.2384 236.096 21.0531C235.963 20.8677 235.714 20.6973 235.351 20.5416C234.996 20.3785 234.48 20.2303 233.806 20.0969C233.198 19.9635 232.631 19.7967 232.105 19.5966C231.586 19.389 231.134 19.1407 230.748 18.8517C230.37 18.5626 230.074 18.2216 229.859 17.8288C229.644 17.4285 229.536 16.9727 229.536 16.4612C229.536 15.9572 229.644 15.4829 229.859 15.0381C230.081 14.5934 230.396 14.2006 230.804 13.8596C231.219 13.5112 231.723 13.2407 232.316 13.048C232.916 12.8478 233.591 12.7478 234.34 12.7478C235.385 12.7478 236.282 12.9146 237.03 13.2481C237.786 13.5816 238.364 14.0412 238.765 14.6268C239.172 15.2049 239.376 15.8646 239.376 16.6058H236.174C236.174 16.2945 236.107 16.0165 235.974 15.7719C235.848 15.5199 235.648 15.3235 235.374 15.1827C235.107 15.0344 234.758 14.9603 234.328 14.9603C233.973 14.9603 233.665 15.0233 233.406 15.1493C233.146 15.2679 232.946 15.431 232.805 15.6385C232.672 15.8386 232.605 16.061 232.605 16.3056C232.605 16.4909 232.642 16.6577 232.716 16.8059C232.798 16.9467 232.928 17.0765 233.105 17.195C233.283 17.3136 233.513 17.4248 233.795 17.5286C234.084 17.625 234.44 17.7139 234.862 17.7954C235.729 17.9733 236.504 18.2068 237.186 18.4959C237.868 18.7775 238.409 19.163 238.809 19.6522C239.209 20.134 239.409 20.7677 239.409 21.5534C239.409 22.087 239.291 22.5762 239.054 23.021C238.816 23.4657 238.475 23.8548 238.031 24.1884C237.586 24.5145 237.052 24.7702 236.43 24.9555C235.815 25.1334 235.122 25.2224 234.351 25.2224C233.231 25.2224 232.283 25.0222 231.504 24.622C230.734 24.2217 230.148 23.714 229.748 23.0988C229.355 22.4762 229.158 21.8387 229.158 21.1865H232.194C232.209 21.6238 232.32 21.9759 232.527 22.2427C232.742 22.5095 233.013 22.7022 233.339 22.8208C233.672 22.9394 234.032 22.9987 234.417 22.9987C234.832 22.9987 235.177 22.9431 235.451 22.832C235.726 22.7134 235.933 22.5577 236.074 22.365C236.222 22.1649 236.296 21.9351 236.296 21.6757Z" fill="#00C2FF"/>
</svg>
