<svg width="286" height="26" viewBox="0 0 286 26" fill="none" xmlns="http://www.w3.org/2000/svg">
<path d="M3.32687 7.72274C2.1544 8.04514 1.02591 8.64596 0 9.4959V8.52872C0.952627 7.82532 1.96388 7.31243 2.98978 7.04865L3.0191 7.034L3.03375 7.06331C3.10703 7.26846 3.22428 7.47362 3.34152 7.67878L3.37084 7.72274H3.32687ZM2.76995 6.22802V6.19871C2.74064 5.94959 2.75529 5.71512 2.79926 5.49531L2.81392 5.43669L2.75529 5.45135C1.99319 5.64185 1.23109 5.93494 0.483642 6.34525C0.337084 6.41852 0.17587 6.50645 0 6.62368V7.53224C0.894004 6.94607 1.81732 6.50645 2.74064 6.25733L2.76995 6.22802ZM22.7605 20.6917C21.4854 20.677 20.4009 20.4132 19.4189 19.8857C19.1405 19.7392 18.9206 19.6659 18.7301 19.6659C18.5249 19.6659 18.3784 19.7392 18.2465 19.8124C18.2025 19.8417 18.1732 19.871 18.1732 19.9004C18.1732 19.915 18.1732 19.9297 18.2025 19.959C19.5215 20.9555 21.0751 21.4537 22.8484 21.4537C23.332 21.4537 23.845 21.4097 24.358 21.3365C25.7649 21.1313 27.1865 20.6477 28.5788 19.915V19.0211C27.7728 19.49 26.952 19.8564 26.1313 20.1348C24.9588 20.5158 23.8303 20.7063 22.7605 20.6917ZM28.1098 7.66413C28.2711 7.25381 28.4176 6.81419 28.5495 6.3306V8.57269C28.359 8.99766 28.1392 9.40797 27.89 9.78898C26.3805 12.2509 24.1967 13.6577 21.7199 13.7603C21.3682 13.7749 21.119 13.9947 21.0018 14.1413C20.8845 14.2732 20.8259 14.3904 20.8259 14.4197C20.8992 14.4637 21.4121 14.5955 21.6906 14.5955H21.7053C24.4312 14.5369 26.8641 13.0129 28.5642 10.3019V11.6354C28.3883 11.8699 28.2124 12.075 28.0366 12.2802C26.3511 14.1706 24.3286 15.1817 22.1889 15.1817C21.9104 15.1817 21.6173 15.1671 21.3242 15.1231C21.2949 15.1231 21.2509 15.1231 21.2216 15.1231C20.738 15.1231 20.3569 15.5334 20.3276 15.6213C20.3862 15.6946 20.8552 15.8998 21.163 15.9437C21.4854 15.9877 21.8078 16.017 22.1303 16.017H22.2182C24.5485 16.017 26.7469 14.9472 28.5788 12.925V14.024C28.3004 14.2878 28.0072 14.5369 27.7434 14.7567C26.146 16.0317 24.3726 16.6911 22.6432 16.6911C21.9544 16.6911 21.2656 16.5885 20.5914 16.3687C20.5035 16.3394 20.4155 16.3247 20.3276 16.3247C19.9026 16.3247 19.5508 16.6032 19.5215 16.6618C19.5802 16.7351 20.0052 17.0428 20.2836 17.1307C21.0457 17.3798 21.8225 17.5117 22.5699 17.5117H22.6579C24.5631 17.5117 26.5124 16.779 28.2564 15.3869C28.3736 15.2989 28.4762 15.211 28.5788 15.1231V16.1049C28.0659 16.5006 27.5383 16.8376 26.996 17.1307C25.633 17.8634 24.2407 18.2298 22.8631 18.2298C22.101 18.2298 21.3535 18.1125 20.6207 17.8927C20.5474 17.8781 20.4742 17.8634 20.3862 17.8634C19.9612 17.8634 19.5948 18.2151 19.5655 18.2884C19.6241 18.3617 20.1078 18.6108 20.3569 18.6987C21.163 18.9625 21.9691 19.0944 22.7312 19.109C22.7605 19.109 22.7898 19.109 22.8191 19.109C24.314 19.109 25.8528 18.6841 27.3624 17.8781C27.7434 17.6729 28.1538 17.4238 28.5495 17.1454V18.0686C27.6702 18.6254 26.7468 19.0504 25.8382 19.3581C24.6071 19.7685 23.5226 19.9736 22.526 19.9883C21.4561 19.9443 20.4595 19.7245 19.6534 19.2995C19.2431 19.0797 18.8034 18.9771 18.1879 19.4314C17.9241 19.6219 17.8215 19.6659 17.6309 19.6659C17.4551 19.6659 17.1913 19.3875 16.8981 19.2263C16.3852 18.9332 16.2973 18.8892 15.755 18.6987C15.4033 18.5668 15.5498 17.3652 15.6817 17.1307C15.9455 16.6618 17.1326 16.442 17.4258 15.8851C17.6163 15.5188 17.2499 15.1524 17.0887 14.9326C17.0154 15.68 16.2386 15.973 15.4619 15.9584C14.6705 15.9437 13.2342 15.4601 13.2049 15.0498C13.0876 15.2257 12.9557 15.5334 12.985 15.8265C13.073 16.4713 14.8903 16.4713 15.1688 17.1307C15.2714 17.3505 15.1834 18.1125 15.1101 18.3324C15.0222 18.6108 14.8463 18.6694 14.4799 18.7866C12.9557 19.2849 12.7945 20.8382 10.8013 18.9771C12.6626 22.3622 13.2635 19.4314 15.0662 19.4461C16.605 19.4607 17.6456 20.6624 18.481 21.2046C18.5103 21.2192 18.5543 21.2485 18.5982 21.2632C19.0526 21.5416 19.5948 21.7614 20.2836 21.9666C21.0311 22.1864 21.8372 22.289 22.6872 22.3036C23.2588 22.3036 23.845 22.2743 24.4312 22.1864C25.7942 21.9812 27.1719 21.5416 28.5349 20.8822V21.7761C26.527 22.6846 24.4312 23.1243 22.482 23.0803C21.0897 23.0363 19.8293 22.7433 18.7301 22.2011C18.6129 22.1424 18.4956 22.1131 18.3491 22.1131C17.9827 22.1131 17.6602 22.3183 17.6163 22.3916C17.6602 22.4648 18.0853 22.8165 18.3198 22.9338C19.4922 23.5346 20.8845 23.857 22.4527 23.9009C22.526 23.9009 22.5846 23.9009 22.6579 23.9009C24.5485 23.9156 26.5856 23.4906 28.5202 22.67V23.5639C26.6589 24.2819 24.7097 24.663 22.8777 24.663C22.013 24.663 21.1776 24.575 20.3862 24.4138C19.2577 24.1794 18.2318 23.7837 17.3378 23.2268C17.2059 23.1389 17.0447 23.1096 16.8835 23.1096C16.5464 23.1096 16.2679 23.2708 16.224 23.3148C16.2679 23.4027 16.6637 23.7837 16.8835 23.9156C17.6456 24.3992 18.5396 24.7362 19.5215 25H17.3525C16.4731 24.575 15.711 24.0914 15.0662 23.476C14.8756 23.3001 14.6265 23.2562 14.4653 23.2562C14.2015 23.2562 13.9963 23.3441 13.967 23.3734C13.9963 23.4613 14.3041 23.8863 14.5092 24.0768C14.861 24.4138 15.2714 24.6923 15.711 25H14.4799C13.7765 24.3992 13.1902 23.7837 12.7359 23.0657C12.56 22.7872 12.4135 22.714 12.2229 22.6114C12.1497 22.5674 12.0617 22.5234 11.9738 22.4648C11.7686 22.3329 11.5488 22.1131 11.3876 21.8787C11.5048 22.3476 11.6807 22.9045 12.0324 23.476C12.3548 24.0035 12.7652 24.4871 13.2489 24.9707H12.2083C10.8306 23.3587 10.1711 21.5563 10.3177 19.6805C10.3323 19.3435 10.1418 19.0944 10.0246 18.9771C9.87802 18.8306 9.74611 18.7573 9.7168 18.7427C9.65818 18.8159 9.51162 19.3435 9.49696 19.6073C9.35041 21.4977 9.92198 23.3294 11.1531 24.9707H10.2151C8.72021 22.7286 8.36847 20.34 9.24782 18.1272C9.43834 17.629 9.11591 17.0721 9.04263 17.0281C8.96935 17.0721 8.61761 17.4824 8.51502 17.7462C7.57705 20.0762 7.8262 22.6114 9.23316 24.9707H8.35381H8.33916C6.91754 22.3329 6.82961 19.6659 8.10466 17.4385C8.29519 17.1161 8.23656 16.7937 8.17794 16.6178C8.11932 16.4273 8.04604 16.3247 8.03138 16.3247C7.97276 16.3394 7.62102 16.6178 7.41584 16.9695C6.02354 19.3435 6.02354 22.1571 7.43049 24.9853H6.58046C6.40459 24.575 6.24337 24.2233 6.11147 23.8423C5.1735 21.0287 5.55455 18.3763 7.18135 16.3834C7.35722 16.1782 7.34256 15.8998 7.31325 15.7093C7.26928 15.4748 7.18135 15.2989 7.15203 15.2696C7.07876 15.2989 6.72702 15.636 6.50718 15.8998C4.70451 18.0686 4.29415 20.9848 5.32006 24.1061C5.42265 24.3992 5.5399 24.663 5.6718 24.9853H4.85107C4.49933 24.0914 4.26484 23.2268 4.13294 22.3476C3.69326 19.3435 4.55796 16.779 6.5658 15.1231C6.82961 14.9033 6.88823 14.5809 6.88823 14.405C6.90289 14.2145 6.87357 14.068 6.84426 14.0387C6.74167 14.0533 6.27269 14.2878 6.0675 14.4637C3.81051 16.2954 2.82857 19.1383 3.31221 22.4648C3.42946 23.3148 3.66395 24.1208 3.97172 24.9853H3.13634C2.62339 23.4467 2.3889 21.9812 2.43286 20.5158C2.5208 17.4531 3.83982 15.0645 6.15544 13.7749C6.44856 13.6137 6.55115 13.306 6.59511 13.1448C6.65374 12.9543 6.63908 12.8077 6.62443 12.7638C6.47787 12.7638 5.97957 12.925 5.77439 13.0422C3.18031 14.4344 1.70007 17.0868 1.59748 20.4865C1.55352 21.9519 1.77335 23.432 2.25699 24.9853H1.42161C0.776758 22.6993 0.659511 20.4572 1.08453 18.4203C1.70007 15.4455 3.38549 13.3206 5.84767 12.456C6.15544 12.3535 6.31665 12.0604 6.38993 11.8992C6.46321 11.7233 6.47787 11.5768 6.47787 11.5328C6.46321 11.5328 6.44856 11.5328 6.40459 11.5328C6.21406 11.5328 5.83301 11.5914 5.59852 11.6647C2.84323 12.6026 0.967283 14.9326 0.27846 18.2444C0.117246 19.0211 0.0293116 19.8417 0.0146558 20.7063L0 21.0287V16.4273C0.0439674 16.3247 0.073279 16.2222 0.117246 16.1342C1.20178 13.4086 3.13634 11.6354 5.56921 11.1225C5.90629 11.0492 6.12613 10.7855 6.21406 10.6389C6.31665 10.4777 6.34597 10.3605 6.36062 10.3312C6.31665 10.3165 6.09682 10.2726 5.81836 10.2726C5.68645 10.2726 5.55455 10.2872 5.46662 10.3019C3.16565 10.7562 1.27506 12.1776 0 14.449V13.0276C1.5242 10.9174 3.61998 9.74502 5.89163 9.71571C6.22872 9.71571 6.47787 9.4959 6.59511 9.36401C6.72702 9.21747 6.78564 9.08558 6.80029 9.05627C6.72702 9.01231 6.25803 8.89508 5.9356 8.89508C3.67861 8.89508 1.62679 9.87691 0 11.7087V10.6096C1.18712 9.46659 2.50614 8.73388 3.9131 8.4408C4.17691 8.38218 4.32346 8.30891 4.35278 8.22099C4.39674 8.10375 4.25018 7.9279 4.07431 7.70809L4.01569 7.63482C3.13634 6.55041 3.59067 5.39273 4.17691 4.38159C2.82857 4.46952 1.45092 4.87984 0.0879348 5.61254C0.073279 5.6272 0.0586232 5.64185 0.0293116 5.65651C0.0293116 5.65651 0.0146558 5.65651 0 5.67116V4.80657C0.542265 4.52814 1.08453 4.30832 1.62679 4.13247C2.63805 3.79543 3.63464 3.61958 4.60192 3.61958C6.4339 3.61958 8.09001 4.24971 9.36506 5.43669C9.54093 5.59789 9.79008 5.64185 9.95129 5.64185C10.2151 5.64185 10.4349 5.56858 10.4789 5.53927C10.4349 5.43669 10.1125 4.99707 9.90733 4.82122C8.44175 3.50234 6.59511 2.79894 4.57261 2.79894C3.53205 2.79894 2.44752 2.98945 1.34833 3.34115C0.923316 3.48769 0.468986 3.66354 0 3.88335V3.03341C1.04056 2.59379 2.09578 2.28605 3.12169 2.13951C3.63464 2.06624 4.13294 2.02227 4.60192 2.02227C7.13738 2.02227 9.29178 3.07737 10.6694 4.98242C10.8746 5.2755 11.241 5.30481 11.4315 5.30481C11.6074 5.30481 11.71 5.2755 11.7393 5.26084C11.7393 5.17292 11.4755 4.68933 11.3289 4.46952C9.80474 2.35932 7.4305 1.20164 4.63124 1.20164C4.10363 1.20164 3.56136 1.2456 3.00444 1.31887C2.0225 1.46542 1.01125 1.74385 0 2.13951V1.28957C1.56817 0.718054 3.12169 0.439625 4.61658 0.439625C4.73383 0.439625 4.83642 0.439625 4.95366 0.439625C8.60296 0.542204 11.0212 2.05158 12.135 4.90914C12.3109 5.36342 12.8531 5.49531 13.0437 5.49531C13.0583 5.49531 13.073 5.49531 13.0876 5.49531C13.1023 5.40739 13.0144 4.86518 12.9118 4.61606C12.0471 2.3007 10.2444 0.7034 7.75292 0.0146542H9.76077C11.7979 1.06975 13.0144 2.74033 13.4833 5.14361C13.5859 5.68581 14.1868 5.92028 14.3334 5.92028C14.3627 5.83236 14.3627 5.26084 14.3041 4.99707C13.9377 2.96014 12.8678 1.23095 11.2263 0.0146542H12.3109C13.7911 1.43611 14.6558 3.31184 14.7437 5.2755C14.7731 5.86166 15.3593 6.22802 15.4619 6.24267C15.5058 6.15475 15.6231 5.56858 15.6084 5.2755C15.5058 3.32649 14.7731 1.50938 13.4687 0.0146542H14.4506C15.4912 1.45076 15.9895 3.07737 15.9162 4.74795C15.9016 5.1143 16.1067 5.39273 16.2386 5.52462C16.3705 5.67116 16.5024 5.74443 16.5318 5.74443C16.5904 5.67116 16.7369 5.09965 16.7516 4.82122C16.8542 3.15065 16.4145 1.48007 15.4619 0H16.3412C17.118 1.42145 17.3818 2.97479 17.1326 4.48417C17.0887 4.77726 17.2206 5.02638 17.3525 5.18757C17.4844 5.34877 17.6309 5.45135 17.6749 5.466C17.7335 5.39273 17.9094 4.90914 17.9534 4.61606C18.2318 3.06272 18.012 1.50938 17.2939 0.0146542H18.0999C18.8034 1.69988 18.8767 3.44373 18.3198 5.05569C18.2025 5.37808 18.3198 5.70047 18.4077 5.86166C18.4956 6.02286 18.5836 6.11079 18.6129 6.14009C18.6862 6.09613 18.9939 5.65651 19.0819 5.39273C19.6974 3.67819 19.6681 1.81712 18.9939 0.0293083H19.8C20.5181 2.13951 20.3862 4.19109 19.4043 5.9789C19.2431 6.27198 19.3017 6.59437 19.3603 6.75557C19.4189 6.94607 19.5069 7.06331 19.5362 7.09261C19.6095 7.04865 19.9612 6.65299 20.0931 6.41852C19.7853 5.42204 20.181 5.12896 20.7819 4.68933C20.8699 4.61606 20.9725 4.55744 21.0751 4.46952C22.013 3.73681 22.7605 3.69285 22.8924 3.69285H22.907C23.1122 3.69285 23.2734 3.79543 23.376 3.97128C23.7278 4.5721 23.4639 5.92028 23.0096 6.75557C22.6432 7.42966 22.4087 7.47362 22.1303 7.50293C21.9397 7.53224 21.7346 7.56155 21.4268 7.86929C21.1776 8.11841 21.163 8.45545 21.163 8.64596C21.163 8.83646 21.207 8.95369 21.2363 8.983C21.3242 8.96835 21.7785 8.70457 21.9984 8.48476C24.0941 6.40387 24.4752 3.1653 24.1528 1.01114C24.1088 0.688746 24.0355 0.3517 23.9622 0.0146542H24.7537C24.9588 1.02579 25.0614 2.00762 25.0321 2.96014C24.9588 5.74443 23.8303 8.01583 21.8665 9.34936C21.588 9.53986 21.5001 9.8476 21.4708 10.0234C21.4414 10.214 21.4561 10.3605 21.4854 10.3898C21.588 10.3898 22.101 10.1846 22.3061 10.0381C24.5045 8.58734 25.7649 6.06682 25.8528 2.97479C25.8822 2.03693 25.7942 1.02579 25.589 0.0146542H26.3951C26.7175 1.78781 26.7029 3.47304 26.3805 5.05569C25.8089 7.85463 24.2261 9.93552 21.9397 10.888C21.632 11.0199 21.5001 11.2984 21.4414 11.4596C21.3682 11.6354 21.3682 11.7966 21.3682 11.8406C21.3682 11.8406 21.3828 11.8406 21.3975 11.8406C21.5587 11.8406 22.0423 11.738 22.2475 11.6501C24.7976 10.6096 26.5563 8.32356 27.2012 5.21688C27.5383 3.59027 27.5529 1.83177 27.2451 0.0146542H28.0805C28.4762 2.6524 28.2271 5.18757 27.3624 7.35639C26.2779 10.0821 24.3286 11.8552 21.8665 12.3681C21.544 12.4414 21.3389 12.6905 21.2509 12.837C21.1483 13.0129 21.1044 13.1594 21.119 13.1887C21.1337 13.1887 21.2509 13.2034 21.4708 13.2034C21.6759 13.2034 21.8811 13.1887 21.9837 13.1741C24.739 12.6465 26.9081 10.6829 28.1098 7.66413ZM7.72361 7.95721C7.72361 7.89859 7.12272 7.64947 6.85892 7.60551C6.37528 7.50293 6.21406 7.45897 6.00888 7.25381C5.75973 7.00469 5.74508 6.63834 5.75973 6.1694C5.75973 5.65651 5.61317 4.71864 5.24678 4.70399C4.71917 4.70399 4.61658 5.33412 4.60192 6.12544C4.60192 7.06331 5.20281 7.16589 5.20281 7.76671C5.20281 7.94256 5.10022 8.14771 5.27609 8.14771C5.73042 8.14771 6.1701 8.19168 6.62443 8.2796C7.21066 8.41149 7.73827 8.04514 7.72361 7.95721ZM8.35381 6.93142C8.30984 6.8728 7.9581 6.65299 7.67964 6.50645C7.63568 6.49179 7.60636 6.47714 7.5624 6.46249C7.28394 6.3306 7.03479 6.21336 6.96151 5.68581V5.61254L7.02013 5.6272C7.51843 5.80305 7.97276 6.05217 8.41243 6.3306C8.52968 6.41852 8.67624 6.46249 8.83745 6.46249C9.17454 6.46249 9.46765 6.28664 9.51162 6.24267C9.46765 6.15475 9.07195 5.78839 8.83745 5.64185C8.01673 5.09965 7.12272 4.71864 6.15544 4.52814C6.37528 4.80656 6.5658 5.21688 6.74167 5.80305C6.82961 6.11079 6.87357 6.35991 6.90289 6.55041C6.97616 6.94607 7.00548 7.13658 7.29859 7.23916C7.37187 7.26846 7.47446 7.28312 7.5624 7.28312C7.97276 7.28312 8.3245 7.00469 8.35381 6.93142ZM11.1531 13.3206C11.0358 13.1301 10.86 13.0862 10.7134 12.9689C9.80474 12.3974 8.77883 11.4889 9.02798 10.2872C8.76417 10.3751 8.4564 10.4484 8.33916 10.7122C8.04604 11.7966 8.83745 12.7198 9.68749 13.3792C10.2151 13.8335 9.13057 14.0826 9.30644 14.7128C9.39437 14.9912 9.54093 15.5188 9.92198 15.4308C10.1858 14.5809 10.9479 14.1852 11.1531 13.3206ZM19.9026 10.0674C18.8767 10.3165 17.03 9.58382 16.4438 10.8294C15.9895 10.214 15.242 9.8476 14.4213 9.90621C13.7765 9.96483 13.2782 10.1846 12.8971 10.6389C12.7066 10.8734 12.604 11.2544 12.3109 11.4596C11.9445 10.1846 10.4642 10.3458 9.33575 10.2433C9.30644 12.5733 11.8126 11.0199 12.5014 12.2216C12.5161 12.2509 12.5307 12.2802 12.5307 12.2802C12.9997 11.1958 13.8058 10.888 14.8024 10.888H14.817C15.4765 10.9174 15.7257 11.1665 15.8869 11.4449L16.693 14.0827C16.7809 14.3025 16.7809 14.786 17.0887 14.4344C17.4258 13.7016 16.8395 12.8957 16.8249 12.1776V12.163C16.8249 11.6354 17.2499 11.2104 17.7775 11.2104C17.9534 11.2104 18.1292 11.2544 18.2611 11.3423C18.8034 11.1372 19.1258 10.2726 19.7121 10.5363C19.5948 11.694 17.6602 11.7966 18.0999 13.1155C19.3896 12.8664 20.8259 11.2251 19.9026 10.0674ZM21.4121 7.18054C21.8518 6.71161 22.2329 6.21336 22.5113 5.68581C22.7898 5.15826 22.3501 4.63072 22.2768 4.64537C21.3535 4.73329 21.5294 5.8177 20.7819 6.66764C20.3716 7.13658 20.5474 7.75205 20.6207 7.78136C20.694 7.81067 21.2216 7.3857 21.4121 7.18054ZM22.6725 3.12134L22.7312 3.09203C22.8924 3.0041 22.995 3.01876 23.0829 3.01876H23.0976C23.2148 3.01876 23.3174 3.07737 23.376 3.15065L23.4346 3.23857V3.13599C23.4493 2.60844 23.42 1.7585 23.332 1.14302C23.2734 0.791325 23.2001 0.410317 23.1122 0.0293083H22.3208C22.5846 1.01114 22.7018 2.00762 22.6725 3.06272V3.12134ZM21.0164 3.92732L21.0018 4.02989L21.0751 3.95662C21.163 3.8687 21.3828 3.73681 21.5734 3.61958C21.6613 3.57562 21.7346 3.517 21.7932 3.48769L21.8078 3.47304V3.45838C21.8958 2.37397 21.7639 1.09906 21.4561 0.0146542H20.6793C21.0897 1.27491 21.1923 2.52052 21.0164 3.92732ZM54.3291 17.8195V24.9707H56.1024C61.6863 24.9707 65.4528 22.245 65.4528 17.2919V15.3136C65.4528 12.9543 66.8012 11.5328 69.0289 11.5328H69.3366V4.4109H67.5047C61.0854 4.4109 57.7585 7.76671 57.7585 12.9543V14.6395C57.7585 16.5739 56.63 17.8195 54.7248 17.8195H54.3291ZM68.4866 17.8195V24.9707H70.2746C75.8438 24.9707 79.625 22.245 79.625 17.2919V15.3136C79.625 12.9543 80.9733 11.5328 83.201 11.5328H83.5088V4.4109H81.6768C75.2576 4.4109 71.9307 7.76671 71.9307 12.9543V14.6395C71.9307 16.5739 70.8022 17.8195 68.8969 17.8195H68.4866ZM43.2346 24.9853V17.8341H42.1648C40.4354 17.8341 39.0284 16.4273 39.0284 14.6981C39.0284 12.9689 40.4354 11.5621 42.1648 11.5621C44.0847 11.5621 45.052 12.8224 45.052 14.6981V25H52.5118V14.6981C52.5118 8.99766 47.8659 4.36694 42.1648 4.36694C36.4637 4.36694 31.8324 9.01231 31.8324 14.6981C31.8324 20.3986 36.4783 25 42.1648 25H43.2346V24.9853ZM95.5998 24.9853V17.8341H94.53C92.8006 17.8341 91.3936 16.4273 91.3936 14.6981C91.3936 12.9689 92.8006 11.5621 94.53 11.5621C96.4352 11.5621 97.4025 12.8224 97.4025 14.6981V25H104.862V14.6981C104.862 8.99766 100.231 4.36694 94.53 4.36694C88.8289 4.36694 84.183 9.01231 84.183 14.6981C84.183 20.3986 88.8289 25 94.53 25H95.5998V24.9853ZM0.556921 24.9853C0.27846 24.1061 0.0293116 22.9631 0 21.908V24.9853H0.556921ZM0 0.468933C0.439674 0.293083 1.20178 0.0439625 2.03716 0.0146542H0V0.468933ZM28.5642 24.4285C27.9926 24.663 27.1279 24.9267 25.9554 24.9853H28.5642V24.4285Z" fill="white"/>
<line x1="119.362" y1="4" x2="119.362" y2="25" stroke="white"/>
<path d="M140.89 11.5804L136.487 25H132.94L138.955 8.81195H141.212L140.89 11.5804ZM144.547 25L140.134 11.5804L139.778 8.81195H142.057L148.105 25H144.547ZM144.347 18.974V21.5867H135.798V18.974H144.347ZM156.888 22.1204V12.9701H160.09V25H157.077L156.888 22.1204ZM157.244 19.6522L158.189 19.6299C158.189 20.4304 158.097 21.1754 157.911 21.8647C157.726 22.5466 157.448 23.1396 157.077 23.6436C156.707 24.1402 156.24 24.5293 155.676 24.811C155.113 25.0852 154.45 25.2224 153.686 25.2224C153.101 25.2224 152.56 25.1408 152.063 24.9778C151.574 24.8073 151.151 24.5442 150.796 24.1884C150.447 23.8252 150.173 23.3619 149.973 22.7986C149.78 22.2279 149.684 21.5423 149.684 20.7417V12.9701H152.886V20.764C152.886 21.1198 152.927 21.42 153.008 21.6646C153.097 21.9092 153.219 22.1093 153.375 22.2649C153.531 22.4206 153.712 22.5318 153.92 22.5985C154.135 22.6652 154.372 22.6985 154.631 22.6985C155.291 22.6985 155.81 22.5651 156.188 22.2983C156.573 22.0315 156.844 21.6683 157 21.2087C157.163 20.7417 157.244 20.2229 157.244 19.6522ZM168.929 12.9701V15.2383H161.925V12.9701H168.929ZM163.659 10.0016H166.861V21.3755C166.861 21.7238 166.905 21.9907 166.994 22.176C167.091 22.3613 167.232 22.491 167.417 22.5651C167.602 22.6318 167.836 22.6652 168.117 22.6652C168.317 22.6652 168.495 22.6578 168.651 22.6429C168.814 22.6207 168.951 22.5985 169.062 22.5762L169.074 24.9333C168.799 25.0222 168.503 25.0927 168.184 25.1445C167.865 25.1964 167.513 25.2224 167.128 25.2224C166.424 25.2224 165.808 25.1075 165.282 24.8777C164.763 24.6405 164.363 24.2625 164.081 23.7436C163.8 23.2248 163.659 22.5429 163.659 21.6979V10.0016ZM170.452 19.1074V18.8739C170.452 17.9919 170.578 17.1802 170.83 16.439C171.082 15.6904 171.449 15.0418 171.931 14.4933C172.412 13.9448 173.005 13.5186 173.709 13.2147C174.414 12.9034 175.222 12.7478 176.133 12.7478C177.045 12.7478 177.857 12.9034 178.568 13.2147C179.28 13.5186 179.876 13.9448 180.358 14.4933C180.847 15.0418 181.218 15.6904 181.47 16.439C181.722 17.1802 181.848 17.9919 181.848 18.8739V19.1074C181.848 19.982 181.722 20.7936 181.47 21.5423C181.218 22.2835 180.847 22.932 180.358 23.4879C179.876 24.0364 179.283 24.4626 178.579 24.7665C177.875 25.0704 177.067 25.2224 176.155 25.2224C175.244 25.2224 174.432 25.0704 173.721 24.7665C173.016 24.4626 172.42 24.0364 171.931 23.4879C171.449 22.932 171.082 22.2835 170.83 21.5423C170.578 20.7936 170.452 19.982 170.452 19.1074ZM173.654 18.8739V19.1074C173.654 19.6114 173.698 20.0821 173.787 20.5194C173.876 20.9567 174.017 21.3421 174.21 21.6757C174.41 22.0018 174.669 22.2575 174.988 22.4428C175.307 22.6281 175.696 22.7208 176.155 22.7208C176.6 22.7208 176.982 22.6281 177.301 22.4428C177.619 22.2575 177.875 22.0018 178.068 21.6757C178.261 21.3421 178.401 20.9567 178.49 20.5194C178.587 20.0821 178.635 19.6114 178.635 19.1074V18.8739C178.635 18.3847 178.587 17.9251 178.49 17.4952C178.401 17.0579 178.257 16.6725 178.057 16.339C177.864 15.998 177.608 15.7312 177.29 15.5384C176.971 15.3457 176.585 15.2494 176.133 15.2494C175.681 15.2494 175.296 15.3457 174.977 15.5384C174.666 15.7312 174.41 15.998 174.21 16.339C174.017 16.6725 173.876 17.0579 173.787 17.4952C173.698 17.9251 173.654 18.3847 173.654 18.8739Z" fill="white"/>
<path d="M190.82 19.2297H186.695V16.628H190.82C191.457 16.628 191.976 16.5243 192.377 16.3167C192.777 16.1018 193.07 15.8053 193.255 15.4273C193.44 15.0492 193.533 14.623 193.533 14.1487C193.533 13.6669 193.44 13.2185 193.255 12.8034C193.07 12.3883 192.777 12.0548 192.377 11.8027C191.976 11.5507 191.457 11.4247 190.82 11.4247H187.851V25H184.516V8.81195H190.82C192.087 8.81195 193.173 9.04173 194.078 9.50128C194.989 9.95342 195.686 10.5797 196.168 11.3802C196.65 12.1808 196.891 13.0962 196.891 14.1264C196.891 15.1715 196.65 16.0758 196.168 16.8393C195.686 17.6027 194.989 18.192 194.078 18.6071C193.173 19.0221 192.087 19.2297 190.82 19.2297ZM205.851 22.2872V16.9282C205.851 16.5428 205.788 16.2129 205.662 15.9387C205.536 15.657 205.34 15.4384 205.073 15.2827C204.814 15.1271 204.477 15.0492 204.061 15.0492C203.706 15.0492 203.398 15.1122 203.139 15.2383C202.879 15.3568 202.679 15.531 202.538 15.7608C202.397 15.9832 202.327 16.2463 202.327 16.5502H199.125C199.125 16.0388 199.244 15.5533 199.481 15.0937C199.718 14.6342 200.063 14.2302 200.515 13.8818C200.967 13.5261 201.504 13.2481 202.127 13.048C202.757 12.8478 203.461 12.7478 204.239 12.7478C205.173 12.7478 206.003 12.9034 206.73 13.2147C207.456 13.5261 208.027 13.993 208.442 14.6156C208.864 15.2383 209.076 16.0165 209.076 16.9504V22.0982C209.076 22.7578 209.117 23.2989 209.198 23.7214C209.28 24.1365 209.398 24.4997 209.554 24.811V25H206.318C206.163 24.6739 206.044 24.2662 205.963 23.777C205.889 23.2804 205.851 22.7838 205.851 22.2872ZM206.274 17.6731L206.296 19.4854H204.506C204.084 19.4854 203.717 19.5336 203.405 19.6299C203.094 19.7263 202.838 19.8634 202.638 20.0413C202.438 20.2118 202.29 20.4119 202.194 20.6417C202.105 20.8715 202.06 21.1235 202.06 21.3977C202.06 21.672 202.123 21.9203 202.249 22.1426C202.375 22.3576 202.557 22.5281 202.794 22.6541C203.031 22.7727 203.309 22.832 203.628 22.832C204.11 22.832 204.528 22.7356 204.884 22.5429C205.24 22.3502 205.514 22.113 205.707 21.8313C205.907 21.5497 206.011 21.2828 206.018 21.0308L206.863 22.3872C206.745 22.6911 206.582 23.0061 206.374 23.3323C206.174 23.6584 205.918 23.966 205.607 24.2551C205.296 24.5367 204.921 24.7702 204.484 24.9555C204.047 25.1334 203.528 25.2224 202.927 25.2224C202.164 25.2224 201.471 25.0704 200.848 24.7665C200.233 24.4552 199.744 24.029 199.381 23.4879C199.025 22.9394 198.847 22.3168 198.847 21.6201C198.847 20.99 198.966 20.4304 199.203 19.9412C199.44 19.452 199.788 19.0407 200.248 18.7071C200.715 18.3662 201.297 18.1104 201.993 17.94C202.69 17.7621 203.498 17.6731 204.417 17.6731H206.274ZM215.246 15.594V25H212.044V12.9701H215.057L215.246 15.594ZM218.871 12.8923L218.815 15.8609C218.659 15.8386 218.47 15.8201 218.248 15.8053C218.033 15.783 217.837 15.7719 217.659 15.7719C217.206 15.7719 216.814 15.8312 216.48 15.9498C216.154 16.061 215.88 16.2278 215.657 16.4501C215.442 16.6725 215.279 16.943 215.168 17.2618C215.064 17.5805 215.005 17.9437 214.99 18.3513L214.345 18.1512C214.345 17.3729 214.423 16.6577 214.579 16.0054C214.735 15.3457 214.961 14.7713 215.257 14.2821C215.561 13.7929 215.932 13.4149 216.369 13.148C216.806 12.8812 217.307 12.7478 217.87 12.7478C218.048 12.7478 218.229 12.7626 218.415 12.7923C218.6 12.8145 218.752 12.8478 218.871 12.8923ZM227.331 12.9701V15.2383H220.327V12.9701H227.331ZM222.061 10.0016H225.263V21.3755C225.263 21.7238 225.308 21.9907 225.397 22.176C225.493 22.3613 225.634 22.491 225.819 22.5651C226.004 22.6318 226.238 22.6652 226.519 22.6652C226.72 22.6652 226.898 22.6578 227.053 22.6429C227.216 22.6207 227.353 22.5985 227.465 22.5762L227.476 24.9333C227.201 25.0222 226.905 25.0927 226.586 25.1445C226.267 25.1964 225.915 25.2224 225.53 25.2224C224.826 25.2224 224.211 25.1075 223.684 24.8777C223.166 24.6405 222.765 24.2625 222.484 23.7436C222.202 23.2248 222.061 22.5429 222.061 21.6979V10.0016ZM236.159 21.6757C236.159 21.4459 236.092 21.2384 235.959 21.0531C235.825 20.8677 235.577 20.6973 235.214 20.5416C234.858 20.3785 234.343 20.2303 233.668 20.0969C233.06 19.9635 232.493 19.7967 231.967 19.5966C231.448 19.389 230.996 19.1407 230.611 18.8517C230.233 18.5626 229.936 18.2216 229.721 17.8288C229.506 17.4285 229.399 16.9727 229.399 16.4612C229.399 15.9572 229.506 15.4829 229.721 15.0381C229.944 14.5934 230.259 14.2006 230.666 13.8596C231.081 13.5112 231.585 13.2407 232.178 13.048C232.779 12.8478 233.453 12.7478 234.202 12.7478C235.247 12.7478 236.144 12.9146 236.892 13.2481C237.648 13.5816 238.227 14.0412 238.627 14.6268C239.035 15.2049 239.238 15.8646 239.238 16.6058H236.036C236.036 16.2945 235.97 16.0165 235.836 15.7719C235.71 15.5199 235.51 15.3235 235.236 15.1827C234.969 15.0344 234.621 14.9603 234.191 14.9603C233.835 14.9603 233.527 15.0233 233.268 15.1493C233.008 15.2679 232.808 15.431 232.668 15.6385C232.534 15.8386 232.467 16.061 232.467 16.3056C232.467 16.4909 232.504 16.6577 232.579 16.8059C232.66 16.9467 232.79 17.0765 232.968 17.195C233.146 17.3136 233.375 17.4248 233.657 17.5286C233.946 17.625 234.302 17.7139 234.724 17.7954C235.592 17.9733 236.366 18.2068 237.048 18.4959C237.73 18.7775 238.271 19.163 238.671 19.6522C239.072 20.134 239.272 20.7677 239.272 21.5534C239.272 22.087 239.153 22.5762 238.916 23.021C238.679 23.4657 238.338 23.8548 237.893 24.1884C237.448 24.5145 236.915 24.7702 236.292 24.9555C235.677 25.1334 234.984 25.2224 234.213 25.2224C233.094 25.2224 232.145 25.0222 231.367 24.622C230.596 24.2217 230.01 23.714 229.61 23.0988C229.217 22.4762 229.021 21.8387 229.021 21.1865H232.056C232.071 21.6238 232.182 21.9759 232.39 22.2427C232.605 22.5095 232.875 22.7022 233.201 22.8208C233.535 22.9394 233.894 22.9987 234.28 22.9987C234.695 22.9987 235.039 22.9431 235.314 22.832C235.588 22.7134 235.795 22.5577 235.936 22.365C236.085 22.1649 236.159 21.9351 236.159 21.6757Z" fill="#00C2FF"/>
</svg>
