<svg width="337" height="36" viewBox="0 0 337 36" fill="none" xmlns="http://www.w3.org/2000/svg">
<path d="M4.66373 10.8118C3.02013 11.2632 1.43816 12.1043 0 13.2943V11.9402C1.33543 10.9555 2.75304 10.2374 4.19119 9.86811L4.23228 9.8476L4.25283 9.88863C4.35556 10.1759 4.51992 10.4631 4.68428 10.7503L4.72537 10.8118H4.66373ZM3.88302 8.71923V8.6782C3.84193 8.32943 3.86247 8.00117 3.92411 7.69344L3.94465 7.61137L3.86247 7.63189C2.79413 7.89859 1.72579 8.30891 0.677987 8.88335C0.472537 8.98593 0.246541 9.10903 0 9.27316V10.5451C1.25325 9.7245 2.54759 9.10903 3.84193 8.76026L3.88302 8.71923ZM31.9065 28.9683C30.1191 28.9478 28.5987 28.5785 27.2222 27.84C26.8319 27.6348 26.5237 27.5322 26.2566 27.5322C25.969 27.5322 25.7635 27.6348 25.5786 27.7374C25.517 27.7784 25.4759 27.8195 25.4759 27.8605C25.4759 27.881 25.4759 27.9015 25.517 27.9426C27.366 29.3376 29.5438 30.0352 32.0298 30.0352C32.7078 30.0352 33.4268 29.9736 34.1459 29.871C36.1182 29.5838 38.1111 28.9068 40.0629 27.881V26.6295C38.9329 27.2861 37.7824 27.7989 36.6319 28.1887C34.9883 28.7222 33.4063 28.9889 31.9065 28.9683ZM39.4054 10.7298C39.6314 10.1553 39.8369 9.53986 40.0218 8.86284V12.0018C39.7547 12.5967 39.4465 13.1712 39.0973 13.7046C36.9811 17.1512 33.9199 19.1208 30.4478 19.2644C29.9547 19.2849 29.6054 19.5926 29.4411 19.7978C29.2767 19.9824 29.1945 20.1465 29.1945 20.1876C29.2973 20.2491 30.0164 20.4338 30.4067 20.4338H30.4273C34.2486 20.3517 37.6591 18.2181 40.0423 14.4226V16.2896C39.7958 16.6178 39.5493 16.905 39.3027 17.1923C36.94 19.8388 34.1048 21.2544 31.1052 21.2544C30.7149 21.2544 30.304 21.2339 29.8931 21.1723C29.852 21.1723 29.7904 21.1723 29.7493 21.1723C29.0713 21.1723 28.5371 21.7468 28.496 21.8699C28.5782 21.9725 29.2356 22.2597 29.6671 22.3212C30.1191 22.3828 30.5711 22.4238 31.0231 22.4238H31.1463C34.413 22.4238 37.4948 20.9261 40.0629 18.095V19.6336C39.6725 20.0029 39.2616 20.3517 38.8918 20.6594C36.6524 22.4443 34.1665 23.3675 31.7421 23.3675C30.7765 23.3675 29.8109 23.2239 28.8658 22.9162C28.7426 22.8751 28.6193 22.8546 28.496 22.8546C27.9002 22.8546 27.4071 23.2444 27.366 23.3265C27.4482 23.4291 28.044 23.8599 28.4344 23.983C29.5027 24.3318 30.5916 24.5164 31.6394 24.5164H31.7627C34.4335 24.5164 37.166 23.4906 39.6109 21.5416C39.7753 21.4185 39.9191 21.2954 40.0629 21.1723V22.5469C39.3438 23.1008 38.6042 23.5727 37.844 23.983C35.9333 25.0088 33.9816 25.5217 32.0503 25.5217C30.982 25.5217 29.9342 25.3576 28.9069 25.0498C28.8042 25.0293 28.7015 25.0088 28.5782 25.0088C27.9824 25.0088 27.4688 25.5012 27.4277 25.6038C27.5099 25.7063 28.1878 26.0551 28.5371 26.1782C29.6671 26.5475 30.7971 26.7321 31.8654 26.7526C31.9065 26.7526 31.9476 26.7526 31.9887 26.7526C34.0843 26.7526 36.2415 26.1577 38.3577 25.0293C38.8918 24.7421 39.4671 24.3933 40.0218 24.0035V25.296C38.7891 26.0756 37.4948 26.6706 36.221 27.1014C34.4952 27.6759 32.9748 27.9631 31.5778 27.9836C30.078 27.922 28.6809 27.6143 27.5509 27.0193C26.9757 26.7116 26.3593 26.568 25.4964 27.204C25.1266 27.4707 24.9828 27.5322 24.7157 27.5322C24.4692 27.5322 24.0994 27.1424 23.6885 26.9168C22.9694 26.5064 22.8461 26.4449 22.086 26.1782C21.5929 25.9936 21.7983 24.3113 21.9832 23.983C22.353 23.3265 24.0172 23.0188 24.4281 22.2392C24.6952 21.7263 24.1816 21.2134 23.9556 20.9056C23.8528 21.9519 22.7639 22.3623 21.6751 22.3417C20.5656 22.3212 18.5522 21.6442 18.5111 21.0698C18.3468 21.3159 18.1618 21.7468 18.2029 22.1571C18.3262 23.0598 20.8738 23.0598 21.2642 23.983C21.408 24.2907 21.2847 25.3576 21.182 25.6653C21.0587 26.0551 20.8122 26.1372 20.2985 26.3013C18.1618 26.9988 17.9358 29.1735 15.1417 26.568C17.7509 31.3072 18.5933 27.204 21.1203 27.2245C23.2776 27.245 24.7363 28.9273 25.9073 29.6864C25.9484 29.7069 26.0101 29.748 26.0717 29.7685C26.7086 30.1583 27.4688 30.466 28.4344 30.7532C29.4822 31.061 30.6122 31.2046 31.8038 31.2251C32.605 31.2251 33.4268 31.1841 34.2486 31.061C36.1593 30.7737 38.0906 30.1583 40.0013 29.2351V30.4865C37.1866 31.7585 34.2486 32.374 31.5161 32.3124C29.5644 32.2509 27.7975 31.8406 26.2566 31.0815C26.0922 30.9994 25.9279 30.9584 25.7224 30.9584C25.2088 30.9584 24.7568 31.2456 24.6952 31.3482C24.7568 31.4508 25.3526 31.9431 25.6813 32.1073C27.3249 32.9484 29.2767 33.3998 31.4751 33.4613C31.5778 33.4613 31.66 33.4613 31.7627 33.4613C34.413 33.4818 37.2688 32.8869 39.9807 31.738V32.9895C37.3715 33.9947 34.639 34.5281 32.0709 34.5281C30.8587 34.5281 29.6876 34.405 28.5782 34.1794C26.9962 33.8511 25.5581 33.2972 24.3048 32.5176C24.1199 32.3945 23.8939 32.3535 23.6679 32.3535C23.1954 32.3535 22.805 32.5791 22.7434 32.6407C22.805 32.7638 23.3597 33.2972 23.6679 33.4818C24.7363 34.1589 25.9895 34.6307 27.366 35H24.3254C23.0927 34.405 22.0243 33.728 21.1203 32.8664C20.8532 32.6202 20.504 32.5586 20.278 32.5586C19.9082 32.5586 19.6205 32.6817 19.5795 32.7227C19.6205 32.8458 20.052 33.4408 20.3396 33.7075C20.8327 34.1794 21.408 34.5692 22.0243 35H20.2985C19.3124 34.1589 18.4906 33.2972 17.8537 32.2919C17.6071 31.9021 17.4017 31.7995 17.1346 31.6559C17.0319 31.5944 16.9086 31.5328 16.7853 31.4508C16.4977 31.2661 16.1895 30.9584 15.9635 30.6301C16.1279 31.2866 16.3744 32.0662 16.8675 32.8664C17.3195 33.6049 17.8948 34.282 18.5727 34.959H17.114C15.1828 32.7022 14.2583 30.1788 14.4637 27.5528C14.4843 27.0809 14.2172 26.7321 14.0528 26.568C13.8474 26.3628 13.6625 26.2603 13.6214 26.2397C13.5392 26.3423 13.3338 27.0809 13.3132 27.4502C13.1078 30.0967 13.909 32.6612 15.6348 34.959H14.3199C12.2243 31.8201 11.7312 28.476 12.9639 25.3781C13.231 24.6805 12.779 23.9009 12.6763 23.8394C12.5736 23.9009 12.0805 24.4754 11.9367 24.8447C10.6218 28.1067 10.9711 31.6559 12.9434 34.959H11.7107H11.6901C9.69727 31.2661 9.574 27.5322 11.3614 24.4138C11.6285 23.9625 11.5463 23.5111 11.4642 23.2649C11.382 22.9982 11.2792 22.8546 11.2587 22.8546C11.1765 22.8751 10.6834 23.2649 10.3958 23.7573C8.44402 27.0809 8.44403 31.0199 10.4164 34.9795H9.22474C8.9782 34.405 8.7522 33.9127 8.5673 33.3793C7.25241 29.4402 7.78658 25.7268 10.0671 22.9367C10.3136 22.6495 10.2931 22.2597 10.252 21.993C10.1904 21.6647 10.0671 21.4185 10.026 21.3775C9.92327 21.4185 9.43019 21.8904 9.12201 22.2597C6.59497 25.296 6.01971 29.3787 7.45786 33.7485C7.60168 34.1589 7.76604 34.5281 7.95094 34.9795H6.80042C6.30734 33.728 5.97862 32.5176 5.79371 31.2866C5.17736 27.0809 6.38952 23.4906 9.20419 21.1723C9.574 20.8646 9.65618 20.4132 9.65618 20.1671C9.67673 19.9004 9.63564 19.6952 9.59455 19.6542C9.45073 19.6747 8.79329 20.0029 8.50566 20.2491C5.34172 22.8136 3.9652 26.7937 4.64319 31.4508C4.80755 32.6407 5.13627 33.7691 5.56771 34.9795H4.39665C3.67757 32.8253 3.34885 30.7737 3.41048 28.7222C3.53375 24.4344 5.38281 21.0903 8.62893 19.2849C9.03983 19.0592 9.18365 18.6284 9.24528 18.4027C9.32746 18.136 9.30692 17.9308 9.28637 17.8693C9.08092 17.8693 8.38239 18.095 8.09476 18.2591C4.45828 20.2081 2.38323 23.9215 2.23941 28.6811C2.17778 30.7327 2.48595 32.8048 3.16394 34.9795H1.99287C1.08889 31.779 0.924528 28.6401 1.52034 25.7884C2.38323 21.6237 4.74591 18.6489 8.19748 17.4385C8.62893 17.2948 8.85493 16.8845 8.95765 16.6589C9.06038 16.4127 9.08092 16.2075 9.08092 16.146C9.06038 16.146 9.03983 16.146 8.9782 16.146C8.71111 16.146 8.17694 16.228 7.84822 16.3306C3.98574 17.6436 1.35597 20.9056 0.390356 25.5422C0.164361 26.6295 0.0410901 27.7784 0.0205451 28.9889L0 29.4402V22.9982C0.0616352 22.8546 0.102725 22.711 0.164361 22.5879C1.6847 18.772 4.39665 16.2896 7.80713 15.5715C8.27966 15.4689 8.58784 15.0996 8.71111 14.8945C8.85493 14.6688 8.89602 14.5047 8.91656 14.4637C8.85493 14.4431 8.54675 14.3816 8.15639 14.3816C7.97149 14.3816 7.78658 14.4021 7.66331 14.4226C4.43774 15.0586 1.78742 17.0487 0 20.2286V18.2386C2.13669 15.2843 5.07463 13.643 8.25912 13.602C8.73166 13.602 9.08092 13.2943 9.24528 13.1096C9.43019 12.9045 9.51237 12.7198 9.53291 12.6788C9.43019 12.6172 8.77275 12.4531 8.32075 12.4531C5.15681 12.4531 2.2805 13.8277 0 16.3921V14.8535C1.66415 13.2532 3.51321 12.2274 5.48553 11.8171C5.85535 11.7351 6.0608 11.6325 6.10189 11.5094C6.16352 11.3453 5.95807 11.0991 5.71153 10.7913L5.62935 10.6887C4.39665 9.17058 5.03354 7.54982 5.85535 6.13423C3.9652 6.25733 2.03396 6.83177 0.12327 7.85756C0.102725 7.87808 0.0821803 7.89859 0.0410901 7.91911C0.0410901 7.91911 0.0205451 7.91911 0 7.93963V6.72919C0.760168 6.33939 1.52034 6.03165 2.2805 5.78546C3.69811 5.3136 5.09518 5.06741 6.45115 5.06741C9.01929 5.06741 11.3409 5.94959 13.1283 7.61137C13.3748 7.83705 13.7241 7.89859 13.9501 7.89859C14.3199 7.89859 14.6281 7.79601 14.6897 7.75498C14.6281 7.61137 14.1761 6.9959 13.8885 6.74971C11.834 4.90328 9.24528 3.91852 6.41006 3.91852C4.95136 3.91852 3.43103 4.18523 1.89015 4.67761C1.29434 4.88277 0.657442 5.12896 0 5.43669V4.24678C1.4587 3.6313 2.93795 3.20047 4.3761 2.99531C5.09518 2.89273 5.79371 2.83118 6.45115 2.83118C10.0055 2.83118 13.0256 4.30832 14.9568 6.97538C15.2444 7.3857 15.7581 7.42673 16.0252 7.42673C16.2717 7.42673 16.4155 7.3857 16.4566 7.36518C16.4566 7.24209 16.0868 6.56506 15.8813 6.25733C13.7447 3.30305 10.4164 1.6823 6.49224 1.6823C5.75262 1.6823 4.99245 1.74385 4.21174 1.84642C2.83522 2.05158 1.41761 2.44138 0 2.99531V1.80539C2.19832 1.00528 4.3761 0.615475 6.4717 0.615475C6.63606 0.615475 6.77987 0.615475 6.94423 0.615475C12.06 0.759086 15.4499 2.87222 17.0113 6.8728C17.2579 7.50879 18.018 7.69344 18.2851 7.69344C18.3057 7.69344 18.3262 7.69344 18.3468 7.69344C18.3673 7.57034 18.244 6.81126 18.1002 6.46249C16.8881 3.22099 14.361 0.98476 10.8683 0.0205158H13.683C16.5388 1.49766 18.244 3.83646 18.9015 7.20106C19.0453 7.96014 19.8876 8.2884 20.0931 8.2884C20.1342 8.1653 20.1342 7.36518 20.052 6.9959C19.5384 4.1442 18.0386 1.72333 15.7375 0.0205158H17.2579C19.3329 2.01055 20.5451 4.63658 20.6683 7.3857C20.7094 8.20633 21.5312 8.71923 21.6751 8.73974C21.7367 8.61665 21.901 7.79601 21.8805 7.3857C21.7367 4.65709 20.7094 2.11313 18.8809 0.0205158H20.2574C21.7161 2.03107 22.4147 4.30832 22.3119 6.64713C22.2914 7.16002 22.579 7.54982 22.7639 7.73447C22.9488 7.93963 23.1338 8.0422 23.1748 8.0422C23.257 7.93963 23.4625 7.13951 23.483 6.74971C23.6268 4.4109 23.0105 2.0721 21.6751 0H22.9078C23.9966 1.99004 24.3665 4.16471 24.0172 6.27784C23.9556 6.68816 24.1405 7.03693 24.3254 7.2626C24.5103 7.48828 24.7157 7.63189 24.7774 7.6524C24.8595 7.54982 25.1061 6.8728 25.1677 6.46249C25.5581 4.28781 25.2499 2.11313 24.2432 0.0205158H25.3732C26.3593 2.37984 26.4621 4.82122 25.6813 7.07796C25.517 7.52931 25.6813 7.98066 25.8046 8.20633C25.9279 8.43201 26.0512 8.5551 26.0922 8.59613C26.195 8.53458 26.6264 7.91911 26.7497 7.54982C27.6126 5.14947 27.5715 2.54396 26.6264 0.0410317H27.7564C28.7631 2.99531 28.5782 5.86753 27.2017 8.37046C26.9757 8.78078 27.0579 9.23212 27.14 9.4578C27.2222 9.7245 27.3455 9.88863 27.3866 9.92966C27.4893 9.86811 27.9824 9.31419 28.1673 8.98593C27.7358 7.59086 28.2906 7.18054 29.1329 6.56507C29.2562 6.46249 29.4 6.38042 29.5438 6.25733C30.8587 5.23154 31.9065 5.16999 32.0914 5.16999H32.1119C32.3996 5.16999 32.6256 5.3136 32.7694 5.55979C33.2625 6.40094 32.8927 8.28839 32.2558 9.4578C31.7421 10.4015 31.4134 10.4631 31.0231 10.5041C30.756 10.5451 30.4683 10.5862 30.0369 11.017C29.6876 11.3658 29.6671 11.8376 29.6671 12.1043C29.6671 12.371 29.7287 12.5352 29.7698 12.5762C29.8931 12.5557 30.53 12.1864 30.8382 11.8787C33.7761 8.96542 34.3103 4.43142 33.8583 1.41559C33.7966 0.964244 33.6939 0.49238 33.5912 0.0205158H34.7006C34.9883 1.43611 35.1321 2.81067 35.091 4.1442C34.9883 8.0422 33.4063 11.2222 30.6532 13.0891C30.2629 13.3558 30.1396 13.7866 30.0985 14.0328C30.0574 14.2995 30.078 14.5047 30.1191 14.5457C30.2629 14.5457 30.982 14.2585 31.2696 14.0533C34.3514 12.0223 36.1182 8.49355 36.2415 4.16471C36.2826 2.8517 36.1593 1.43611 35.8717 0.0205158H37.0017C37.4537 2.50293 37.4331 4.86225 36.9811 7.07796C36.1799 10.9965 33.961 13.9097 30.756 15.2433C30.3245 15.4279 30.1396 15.8177 30.0574 16.0434C29.9547 16.2896 29.9547 16.5152 29.9547 16.5768C29.9547 16.5768 29.9753 16.5768 29.9958 16.5768C30.2218 16.5768 30.8998 16.4332 31.1874 16.3101C34.7623 14.8535 37.2277 11.653 38.1317 7.30363C38.6042 5.02638 38.6247 2.56448 38.1933 0.0205158H39.3644C39.9191 3.71336 39.5698 7.2626 38.3577 10.2989C36.8373 14.1149 34.1048 16.5973 30.6532 17.3154C30.2013 17.4179 29.9136 17.7667 29.7904 17.9719C29.6465 18.2181 29.5849 18.4232 29.6054 18.4642C29.626 18.4642 29.7904 18.4848 30.0985 18.4848C30.3862 18.4848 30.6738 18.4642 30.8176 18.4437C34.6801 17.7052 37.7208 14.956 39.4054 10.7298ZM10.8273 11.1401C10.8273 11.058 9.9849 10.7093 9.61509 10.6477C8.93711 10.5041 8.71111 10.4426 8.42348 10.1553C8.07421 9.80657 8.05367 9.29367 8.07421 8.63716C8.07421 7.91911 7.86876 6.6061 7.35514 6.58558C6.61551 6.58558 6.4717 7.46776 6.45115 8.57562C6.45115 9.88863 7.2935 10.0322 7.2935 10.8734C7.2935 11.1196 7.14969 11.4068 7.39623 11.4068C8.03312 11.4068 8.64948 11.4683 9.28637 11.5914C10.1082 11.7761 10.8478 11.2632 10.8273 11.1401ZM11.7107 9.70399C11.6491 9.62192 11.156 9.31419 10.7656 9.10903C10.704 9.08851 10.6629 9.068 10.6013 9.04748C10.2109 8.86284 9.86163 8.69871 9.75891 7.96014V7.85756L9.84109 7.87808C10.5396 8.12427 11.1765 8.47304 11.7929 8.86284C11.9572 8.98593 12.1627 9.04748 12.3887 9.04748C12.8612 9.04748 13.2721 8.80129 13.3338 8.73974C13.2721 8.61665 12.7174 8.10375 12.3887 7.89859C11.2382 7.13951 9.9849 6.6061 8.62893 6.33939C8.93711 6.72919 9.20419 7.30363 9.45073 8.12427C9.574 8.5551 9.63564 8.90387 9.67673 9.17058C9.77945 9.7245 9.82054 9.99121 10.2314 10.1348C10.3342 10.1759 10.478 10.1964 10.6013 10.1964C11.1765 10.1964 11.6696 9.80657 11.7107 9.70399ZM15.6348 18.6489C15.4704 18.3822 15.2239 18.3206 15.0184 18.1565C13.7447 17.3564 12.3065 16.0844 12.6558 14.4021C12.286 14.5252 11.8545 14.6278 11.6901 14.9971C11.2792 16.5152 12.3887 17.8077 13.5803 18.731C14.3199 19.3669 12.7996 19.7157 13.0461 20.5979C13.1694 20.9877 13.3748 21.7263 13.909 21.6032C14.2788 20.4133 15.3472 19.8593 15.6348 18.6489ZM27.9002 14.0944C26.4621 14.4431 23.8734 13.4174 23.0516 15.1612C22.4147 14.2995 21.3669 13.7866 20.2164 13.8687C19.3124 13.9508 18.6138 14.2585 18.0797 14.8945C17.8126 15.2227 17.6688 15.7562 17.2579 16.0434C16.7442 14.2585 14.6692 14.4842 13.0872 14.3406C13.0461 17.6026 16.5593 15.4279 17.5249 17.1102C17.5455 17.1512 17.566 17.1923 17.566 17.1923C18.2235 15.6741 19.3535 15.2433 20.7505 15.2433H20.7711C21.6956 15.2843 22.0449 15.6331 22.2709 16.0229L23.4008 19.7157C23.5241 20.0234 23.5241 20.7005 23.9556 20.2081C24.4281 19.1823 23.6063 18.0539 23.5857 17.0487V17.0281C23.5857 16.2896 24.1816 15.6946 24.9212 15.6946C25.1677 15.6946 25.4143 15.7562 25.5992 15.8793C26.3593 15.592 26.8113 14.3816 27.6331 14.7509C27.4688 16.3716 24.7568 16.5152 25.3732 18.3617C27.1811 18.0129 29.1945 15.7151 27.9002 14.0944ZM30.0164 10.0528C30.6327 9.39625 31.1669 8.69871 31.5572 7.96014C31.9476 7.22157 31.3312 6.483 31.2285 6.50352C29.9342 6.62661 30.1807 8.14478 29.1329 9.3347C28.5577 9.99121 28.8042 10.8529 28.9069 10.8939C29.0096 10.9349 29.7493 10.34 30.0164 10.0528ZM31.7832 4.36987L31.8654 4.32884C32.0914 4.20574 32.2352 4.22626 32.3585 4.22626H32.379C32.5434 4.22626 32.6872 4.30832 32.7694 4.4109L32.8516 4.534V4.39039C32.8721 3.65182 32.831 2.4619 32.7078 1.60023C32.6256 1.10785 32.5229 0.574443 32.3996 0.0410317H31.2901C31.66 1.41559 31.8243 2.81067 31.7832 4.28781V4.36987ZM29.4616 5.49824L29.4411 5.64185L29.5438 5.53927C29.6671 5.41618 29.9753 5.23154 30.2423 5.06741C30.3656 5.00586 30.4683 4.9238 30.5505 4.88277L30.5711 4.86225V4.84174C30.6943 3.32356 30.5094 1.53869 30.078 0.0205158H28.9891C29.5644 1.78488 29.7082 3.52872 29.4616 5.49824ZM76.1606 24.9472V34.959H78.6465C86.4742 34.959 91.7543 31.143 91.7543 24.2087V21.439C91.7543 18.136 93.6444 16.146 96.7673 16.146H97.1987V6.17526H94.6306C85.6319 6.17526 80.9681 10.8734 80.9681 18.136V20.4953C80.9681 23.2034 79.3862 24.9472 76.7153 24.9472H76.1606ZM96.0071 24.9472V34.959H98.5136C106.321 34.959 111.621 31.143 111.621 24.2087V21.439C111.621 18.136 113.512 16.146 116.634 16.146H117.066V6.17526H114.498C105.499 6.17526 100.835 10.8734 100.835 18.136V20.4953C100.835 23.2034 99.2532 24.9472 96.5824 24.9472H96.0071ZM60.608 34.9795V24.9678H59.1082C56.6839 24.9678 54.7115 22.9982 54.7115 20.5774C54.7115 18.1565 56.6839 16.187 59.1082 16.187C61.7996 16.187 63.1556 17.9514 63.1556 20.5774V35H73.613V20.5774C73.613 12.5967 67.1002 6.11372 59.1082 6.11372C51.1161 6.11372 44.6239 12.6172 44.6239 20.5774C44.6239 28.558 51.1367 35 59.1082 35H60.608V34.9795ZM134.016 34.9795V24.9678H132.516C130.091 24.9678 128.119 22.9982 128.119 20.5774C128.119 18.1565 130.091 16.187 132.516 16.187C135.187 16.187 136.543 17.9514 136.543 20.5774V35H147V20.5774C147 12.5967 140.508 6.11372 132.516 6.11372C124.524 6.11372 118.011 12.6172 118.011 20.5774C118.011 28.558 124.524 35 132.516 35H134.016V34.9795ZM0.780713 34.9795C0.390356 33.7485 0.0410901 32.1483 0 30.6712V34.9795H0.780713ZM0 0.656506C0.616352 0.410317 1.6847 0.0615475 2.85577 0.0205158H0V0.656506ZM40.0423 32.9484V31.697V32.9484ZM40.0423 34.1999C39.2411 34.5281 38.0289 34.8974 36.3853 34.9795H40.0423V34.1999Z" fill="white"/>
<line x1="167.5" y1="6" x2="167.5" y2="35" stroke="white"/>
<path d="M198.634 15.5513L192.253 35H187.113L195.83 11.5391H199.101L198.634 15.5513ZM203.935 35L197.538 15.5513L197.022 11.5391H200.326L209.091 35H203.935ZM203.645 26.2666V30.0532H191.254V26.2666H203.645ZM221.195 30.8267V17.5654H225.835V35H221.469L221.195 30.8267ZM221.71 27.2495L223.08 27.2173C223.08 28.3774 222.946 29.457 222.677 30.4561C222.409 31.4443 222.006 32.3037 221.469 33.0342C220.932 33.7539 220.255 34.3179 219.438 34.7261C218.622 35.1235 217.661 35.3223 216.554 35.3223C215.705 35.3223 214.921 35.2041 214.202 34.9678C213.493 34.7207 212.88 34.3394 212.365 33.8237C211.86 33.2974 211.462 32.626 211.172 31.8096C210.893 30.9824 210.753 29.9888 210.753 28.8286V17.5654H215.394V28.8608C215.394 29.3765 215.453 29.8115 215.571 30.166C215.7 30.5205 215.877 30.8105 216.103 31.0361C216.328 31.2617 216.592 31.4229 216.892 31.5195C217.204 31.6162 217.548 31.6646 217.924 31.6646C218.88 31.6646 219.632 31.4712 220.18 31.0845C220.738 30.6978 221.13 30.1714 221.356 29.5054C221.592 28.8286 221.71 28.0767 221.71 27.2495ZM238.019 17.5654V20.8525H227.868V17.5654H238.019ZM230.382 13.2632H235.022V29.7471C235.022 30.252 235.087 30.6387 235.216 30.9072C235.355 31.1758 235.559 31.3638 235.828 31.4712C236.096 31.5679 236.435 31.6162 236.843 31.6162C237.133 31.6162 237.391 31.6055 237.616 31.584C237.853 31.5518 238.052 31.5195 238.213 31.4873L238.229 34.9033C237.831 35.0322 237.402 35.1343 236.94 35.2095C236.478 35.2847 235.968 35.3223 235.409 35.3223C234.388 35.3223 233.497 35.1558 232.734 34.8228C231.982 34.479 231.402 33.9312 230.994 33.1792C230.586 32.4272 230.382 31.439 230.382 30.2144V13.2632ZM239.601 26.46V26.1216C239.601 24.8433 239.783 23.667 240.149 22.5928C240.514 21.5078 241.046 20.5679 241.744 19.7729C242.442 18.978 243.301 18.3604 244.322 17.9199C245.342 17.4688 246.513 17.2432 247.835 17.2432C249.156 17.2432 250.332 17.4688 251.363 17.9199C252.395 18.3604 253.259 18.978 253.958 19.7729C254.667 20.5679 255.204 21.5078 255.569 22.5928C255.934 23.667 256.117 24.8433 256.117 26.1216V26.46C256.117 27.7275 255.934 28.9038 255.569 29.9888C255.204 31.063 254.667 32.0029 253.958 32.8086C253.259 33.6035 252.4 34.2212 251.38 34.6616C250.359 35.1021 249.188 35.3223 247.867 35.3223C246.546 35.3223 245.369 35.1021 244.338 34.6616C243.318 34.2212 242.453 33.6035 241.744 32.8086C241.046 32.0029 240.514 31.063 240.149 29.9888C239.783 28.9038 239.601 27.7275 239.601 26.46ZM244.241 26.1216V26.46C244.241 27.1904 244.306 27.8726 244.435 28.5063C244.564 29.1401 244.768 29.6987 245.047 30.1821C245.337 30.6548 245.713 31.0254 246.175 31.2939C246.637 31.5625 247.201 31.6968 247.867 31.6968C248.511 31.6968 249.065 31.5625 249.526 31.2939C249.988 31.0254 250.359 30.6548 250.638 30.1821C250.918 29.6987 251.122 29.1401 251.251 28.5063C251.39 27.8726 251.46 27.1904 251.46 26.46V26.1216C251.46 25.4126 251.39 24.7466 251.251 24.1235C251.122 23.4897 250.912 22.9312 250.622 22.4478C250.343 21.9536 249.972 21.5669 249.51 21.2876C249.048 21.0083 248.49 20.8687 247.835 20.8687C247.179 20.8687 246.621 21.0083 246.159 21.2876C245.708 21.5669 245.337 21.9536 245.047 22.4478C244.768 22.9312 244.564 23.4897 244.435 24.1235C244.306 24.7466 244.241 25.4126 244.241 26.1216Z" fill="white"/>
<path d="M268.494 26.6372H262.516V22.8667H268.494C269.418 22.8667 270.17 22.7163 270.75 22.4155C271.33 22.104 271.754 21.6743 272.023 21.1265C272.292 20.5786 272.426 19.9609 272.426 19.2734C272.426 18.5752 272.292 17.9253 272.023 17.3237C271.754 16.7222 271.33 16.2388 270.75 15.8735C270.17 15.5083 269.418 15.3257 268.494 15.3257H264.192V35H259.358V11.5391H268.494C270.331 11.5391 271.905 11.8721 273.215 12.5381C274.537 13.1934 275.546 14.1011 276.245 15.2612C276.943 16.4214 277.292 17.748 277.292 19.2412C277.292 20.7559 276.943 22.0664 276.245 23.1729C275.546 24.2793 274.537 25.1333 273.215 25.7349C271.905 26.3364 270.331 26.6372 268.494 26.6372ZM289.653 31.0684V23.3018C289.653 22.7432 289.562 22.2651 289.379 21.8677C289.197 21.4595 288.912 21.1426 288.525 20.917C288.149 20.6914 287.661 20.5786 287.059 20.5786C286.543 20.5786 286.098 20.6699 285.722 20.8525C285.346 21.0244 285.056 21.2769 284.851 21.6099C284.647 21.9321 284.545 22.3135 284.545 22.7539H279.905C279.905 22.0127 280.077 21.3091 280.42 20.6431C280.764 19.9771 281.264 19.3916 281.919 18.8867C282.574 18.3711 283.353 17.9683 284.255 17.6782C285.168 17.3882 286.189 17.2432 287.317 17.2432C288.67 17.2432 289.873 17.4688 290.926 17.9199C291.979 18.3711 292.806 19.0479 293.408 19.9502C294.02 20.8525 294.326 21.9805 294.326 23.334V30.7944C294.326 31.7505 294.385 32.5347 294.503 33.147C294.621 33.7485 294.793 34.2749 295.019 34.7261V35H290.33C290.104 34.5273 289.933 33.9365 289.814 33.2275C289.707 32.5078 289.653 31.7881 289.653 31.0684ZM290.266 24.3813L290.298 27.0078H287.703C287.091 27.0078 286.559 27.0776 286.108 27.2173C285.657 27.3569 285.287 27.5557 284.996 27.8135C284.706 28.0605 284.492 28.3506 284.352 28.6836C284.223 29.0166 284.159 29.3818 284.159 29.7793C284.159 30.1768 284.25 30.5366 284.433 30.8589C284.615 31.1704 284.878 31.4175 285.222 31.6001C285.566 31.772 285.969 31.8579 286.431 31.8579C287.129 31.8579 287.736 31.7183 288.251 31.439C288.767 31.1597 289.164 30.8159 289.444 30.4077C289.734 29.9995 289.884 29.6128 289.895 29.2476L291.12 31.2134C290.948 31.6538 290.711 32.1104 290.411 32.583C290.12 33.0557 289.75 33.5015 289.299 33.9204C288.848 34.3286 288.305 34.667 287.671 34.9355C287.037 35.1934 286.286 35.3223 285.415 35.3223C284.309 35.3223 283.305 35.1021 282.402 34.6616C281.511 34.2104 280.802 33.5928 280.275 32.8086C279.76 32.0137 279.502 31.1113 279.502 30.1016C279.502 29.1885 279.674 28.3774 280.017 27.6685C280.361 26.9595 280.866 26.3633 281.532 25.8799C282.209 25.3857 283.052 25.0151 284.062 24.7681C285.072 24.5103 286.243 24.3813 287.575 24.3813H290.266ZM302.643 21.3682V35H298.002V17.5654H302.369L302.643 21.3682ZM307.896 17.4526L307.815 21.7549C307.59 21.7227 307.316 21.6958 306.993 21.6743C306.682 21.6421 306.397 21.626 306.139 21.626C305.484 21.626 304.915 21.7119 304.431 21.8838C303.959 22.0449 303.561 22.2866 303.239 22.6089C302.927 22.9312 302.691 23.3232 302.53 23.7852C302.38 24.2471 302.294 24.7734 302.272 25.3643L301.338 25.0742C301.338 23.9463 301.45 22.9097 301.676 21.9644C301.902 21.0083 302.229 20.1758 302.659 19.4668C303.099 18.7578 303.636 18.21 304.27 17.8232C304.904 17.4365 305.629 17.2432 306.446 17.2432C306.703 17.2432 306.967 17.2646 307.235 17.3076C307.504 17.3398 307.724 17.3882 307.896 17.4526ZM319.532 17.5654V20.8525H309.381V17.5654H319.532ZM311.894 13.2632H316.535V29.7471C316.535 30.252 316.599 30.6387 316.728 30.9072C316.868 31.1758 317.072 31.3638 317.34 31.4712C317.609 31.5679 317.947 31.6162 318.356 31.6162C318.646 31.6162 318.903 31.6055 319.129 31.584C319.365 31.5518 319.564 31.5195 319.725 31.4873L319.741 34.9033C319.344 35.0322 318.914 35.1343 318.452 35.2095C317.99 35.2847 317.48 35.3223 316.922 35.3223C315.901 35.3223 315.009 35.1558 314.247 34.8228C313.495 34.479 312.915 33.9312 312.506 33.1792C312.098 32.4272 311.894 31.439 311.894 30.2144V13.2632ZM331.7 30.1821C331.7 29.8491 331.603 29.5483 331.41 29.2798C331.216 29.0112 330.856 28.7642 330.33 28.5386C329.814 28.3022 329.068 28.0874 328.09 27.894C327.209 27.7007 326.388 27.459 325.625 27.1689C324.873 26.8682 324.218 26.5083 323.659 26.0894C323.111 25.6704 322.682 25.1763 322.37 24.6069C322.059 24.0269 321.903 23.3662 321.903 22.625C321.903 21.8945 322.059 21.207 322.37 20.5625C322.692 19.918 323.149 19.3486 323.74 18.8545C324.341 18.3496 325.072 17.9575 325.931 17.6782C326.801 17.3882 327.779 17.2432 328.864 17.2432C330.378 17.2432 331.678 17.4849 332.763 17.9683C333.859 18.4517 334.697 19.1177 335.277 19.9663C335.868 20.8042 336.163 21.7603 336.163 22.8345H331.522C331.522 22.3833 331.426 21.9805 331.232 21.626C331.05 21.2607 330.76 20.9761 330.362 20.772C329.976 20.5571 329.471 20.4497 328.848 20.4497C328.332 20.4497 327.886 20.541 327.51 20.7236C327.134 20.8955 326.844 21.1318 326.64 21.4326C326.447 21.7227 326.35 22.0449 326.35 22.3994C326.35 22.668 326.404 22.9097 326.511 23.1245C326.629 23.3286 326.817 23.5166 327.075 23.6885C327.333 23.8604 327.666 24.0215 328.074 24.1719C328.493 24.3115 329.009 24.4404 329.621 24.5586C330.878 24.8164 332.001 25.1548 332.989 25.5737C333.977 25.9819 334.761 26.5405 335.341 27.2495C335.921 27.9478 336.211 28.8662 336.211 30.0049C336.211 30.7783 336.04 31.4873 335.696 32.1318C335.352 32.7764 334.858 33.3403 334.213 33.8237C333.569 34.2964 332.795 34.667 331.893 34.9355C331.001 35.1934 329.997 35.3223 328.88 35.3223C327.258 35.3223 325.883 35.0322 324.755 34.4521C323.638 33.8721 322.789 33.1362 322.209 32.2446C321.64 31.3423 321.355 30.4185 321.355 29.4731H325.754C325.775 30.1069 325.937 30.6172 326.237 31.0039C326.549 31.3906 326.941 31.6699 327.414 31.8418C327.897 32.0137 328.418 32.0996 328.977 32.0996C329.578 32.0996 330.078 32.019 330.475 31.8579C330.873 31.686 331.173 31.4604 331.377 31.1812C331.592 30.8911 331.7 30.5581 331.7 30.1821Z" fill="#00C2FF"/>
</svg>
