<svg width="252" height="60" viewBox="0 0 252 60" fill="none" xmlns="http://www.w3.org/2000/svg">
<path d="M18.1712 17.4827C17.9441 17.4827 17.7169 17.4436 17.5054 17.3731C16.8162 17.1226 16.7379 16.6842 16.5734 15.729C16.4872 15.2592 16.3854 14.672 16.1896 13.9361C15.798 12.5347 15.3437 11.5325 14.7954 10.8592C17.0982 11.3211 19.2756 12.2136 21.2572 13.5211C21.7976 13.85 22.761 14.7503 22.8628 14.9539C22.7532 15.0792 22.0326 15.4863 21.2258 15.4863C20.8342 15.4863 20.4896 15.3923 20.192 15.2044C19.1581 14.5233 18.038 13.9596 16.8554 13.5211L16.7144 13.4663L16.7379 13.6151C16.9258 14.9147 17.5054 15.1731 18.179 15.4785C18.2652 15.5176 18.3592 15.5646 18.4532 15.6116C19.1346 15.9404 19.9726 16.4728 20.0901 16.6215C19.9961 16.8016 19.1424 17.4827 18.1712 17.4827ZM67.4292 0.00782926C68.377 6.3417 67.7817 12.4329 65.7139 17.6315C63.1214 24.1689 58.4298 28.4359 52.5007 29.6572C51.7174 29.8138 51.2396 30.4323 51.0282 30.7847C50.7697 31.1996 50.6914 31.5441 50.6992 31.6381C50.7775 31.6615 51.0673 31.7007 51.5921 31.7007C52.0934 31.7007 52.5711 31.6615 52.8453 31.6146C59.448 30.3462 64.6801 25.633 67.5702 18.3596C67.9618 17.3731 68.3143 16.3005 68.6276 15.1653V0.00782926H67.4292ZM13.3778 26.7056C14.1767 26.5412 14.7014 25.8992 14.9442 25.5312C15.187 25.1632 15.2732 24.8736 15.2732 24.7953C15.1635 24.7405 14.6309 24.6622 13.9652 24.6622C13.6362 24.6622 13.3464 24.6857 13.1193 24.7248C7.60527 25.7974 3.06247 29.2345 0 34.6758V39.4203C0.0861565 39.1698 0.180145 38.9349 0.274134 38.7C2.86666 32.1704 7.51911 27.9035 13.3778 26.7056ZM14.1532 23.3155C14.9677 23.2999 15.563 22.7832 15.845 22.47C16.1661 22.1177 16.3071 21.8045 16.3227 21.7184C16.1661 21.6088 15.0304 21.3191 14.2472 21.3191C8.84279 21.3347 3.92404 23.6835 0 28.0992V31.2779C3.6734 26.2045 8.68614 23.386 14.1532 23.3155ZM53.2839 36.4217C52.6025 36.4217 51.9054 36.3748 51.224 36.2886C51.1378 36.2808 51.0517 36.273 50.9577 36.273C49.7985 36.273 48.8664 37.2673 48.7959 37.4552C48.9447 37.6118 50.0804 38.1442 50.7932 38.2381C51.5764 38.3477 52.3597 38.4104 53.1116 38.4182H53.3231C58.9154 38.4182 64.2023 35.858 68.6198 31.0039V27.9113C68.189 28.4672 67.766 28.9839 67.3509 29.4615C63.2937 34.0181 58.4298 36.4217 53.2839 36.4217ZM54.9052 43.7812C53.0724 43.7812 51.2631 43.5072 49.5165 42.967C49.3364 42.9122 49.1562 42.8809 48.9682 42.8809C47.9344 42.8809 47.0885 43.7186 47.0023 43.8908C47.1511 44.0474 48.3025 44.6738 48.9134 44.8617C50.8559 45.488 52.7748 45.8168 54.6232 45.8403C54.7016 45.8403 54.7721 45.8482 54.8504 45.8482C58.4533 45.8482 62.1345 44.846 65.7844 42.873C66.7086 42.372 67.6642 41.7848 68.6354 41.1193V38.6766C67.3979 39.6161 66.1212 40.446 64.8445 41.1271C61.5628 42.8887 58.2261 43.7812 54.9052 43.7812ZM54.3413 40.0467C52.673 40.0467 51.0203 39.7883 49.4225 39.2872C49.2189 39.2246 49.0074 39.1933 48.7803 39.1933C47.7464 39.1933 46.924 39.8588 46.8378 40.0154C46.9631 40.1954 48.0127 40.9314 48.6549 41.1271C50.5034 41.7221 52.3518 42.0353 54.1533 42.051H54.3648C58.9546 42.051 63.607 40.2894 67.8365 36.9463C68.1028 36.7349 68.377 36.5079 68.6276 36.2965V33.6189C67.954 34.2687 67.2726 34.8637 66.6068 35.3883C62.7533 38.4417 58.5081 40.0467 54.3413 40.0467ZM11.0515 8.65916C15.4612 8.65916 19.4165 10.178 22.479 13.0436C22.902 13.435 23.4894 13.5211 23.9045 13.5211C24.5468 13.5211 25.0559 13.3332 25.1577 13.2549C25.0872 13.0514 24.2883 11.9944 23.8105 11.5638C20.2781 8.37731 15.845 6.68619 10.9889 6.68619C8.49033 6.68619 5.88997 7.12463 3.26612 8.00151C2.20091 8.35382 1.10437 8.78443 0 9.30899V11.5168C1.30801 10.8592 2.61603 10.3111 3.89271 9.88836C6.33642 9.07412 8.7488 8.65916 11.0515 8.65916ZM52.7121 26.1419C51.9837 26.4472 51.6391 27.1441 51.5059 27.5277C51.3493 27.974 51.3258 28.3419 51.3493 28.4437C51.3493 28.4437 51.3728 28.4437 51.4041 28.4437C51.7722 28.4437 52.9393 28.201 53.4562 27.9818C59.5733 25.4921 63.795 19.9959 65.338 12.5112C66.1447 8.59653 66.176 4.38439 65.4398 0H63.4269C64.1788 4.25129 64.1631 8.32251 63.3877 12.1119C62.0014 18.8529 58.2105 23.8323 52.7121 26.1419ZM46.6185 14.2806C46.2347 14.9852 46.3914 15.7446 46.5245 16.1439C46.6733 16.598 46.877 16.8799 46.9553 16.9425C47.1433 16.8329 47.9892 15.8777 48.3181 15.3297C47.5819 12.9339 48.5375 12.2371 49.9708 11.1802C50.1901 11.0158 50.4251 10.8435 50.6679 10.6556C52.9079 8.90187 54.7094 8.80792 55.0462 8.80792H55.0775C55.5631 8.81575 55.9469 9.05063 56.2054 9.48907C57.0513 10.9375 56.4169 14.1788 55.3125 16.1753C54.4118 17.8116 53.8557 17.8899 53.2056 17.9838C52.7356 18.0543 52.2422 18.1247 51.5059 18.8842C50.9107 19.4949 50.848 20.3091 50.8637 20.7397C50.8793 21.186 50.9812 21.4757 51.0282 21.5383C51.2475 21.507 52.344 20.8493 52.8531 20.3561C57.8894 15.361 58.7979 7.56307 58.0382 2.39575C57.9128 1.62849 57.7562 0.822073 57.5761 0.00782926H55.5318C55.7589 0.931682 55.9469 1.83988 56.0644 2.69327C56.2759 4.16517 56.3464 6.20078 56.3229 7.47695L56.315 7.73531L56.1584 7.53175C56.0017 7.32819 55.7668 7.21075 55.477 7.20292H55.4535C55.2577 7.19509 54.9992 7.17943 54.6154 7.38299L54.4823 7.45346L54.4901 7.29687C54.5371 4.74453 54.2551 2.35661 53.6364 0H51.5686C52.2813 2.57583 52.6025 5.66056 52.3988 8.2677V8.31468L52.3597 8.33817C52.2187 8.43995 52.0307 8.54173 51.8271 8.66699C51.3806 8.93319 50.8715 9.24636 50.6444 9.47341L50.4564 9.66914L50.4799 9.40294C50.9107 6.03636 50.66 3.04558 49.6888 0.00782926H47.5662C49.305 5.06553 48.9761 9.99797 46.6185 14.2806ZM52.203 33.0082C51.3571 33.0395 50.754 33.5875 50.4721 33.9007C50.1823 34.2295 50.0491 34.5036 50.0413 34.5897C50.2214 34.7071 51.4589 34.9968 52.1012 34.9968H52.1404C58.6961 34.8402 64.5547 31.184 68.6198 24.6935V20.544C68.142 21.5618 67.6172 22.5404 67.0454 23.4643C63.3955 29.3911 58.1243 32.7811 52.203 33.0082ZM11.0672 4.83848C17.153 4.83848 22.3302 7.35951 25.6355 11.9396C26.1289 12.6286 26.9983 12.7304 27.4683 12.7304C27.8834 12.7304 28.1575 12.6599 28.228 12.6129C28.1967 12.3859 27.5701 11.2272 27.202 10.7104C23.5677 5.6449 17.8657 2.84985 11.1299 2.84985C9.86101 2.84985 8.54516 2.9438 7.22148 3.13953C4.84826 3.49185 2.41238 4.15734 0 5.11251V7.26556C2.50637 6.19295 5.03624 5.47265 7.51128 5.10468C8.71747 4.93244 9.91583 4.83848 11.0672 4.83848ZM2.60036 44.2118C4.08069 37.0559 8.13788 31.9669 14.0357 29.9C14.7954 29.6338 15.187 28.9526 15.3594 28.569C15.5552 28.1305 15.5865 27.7782 15.5708 27.6921C15.5473 27.6843 15.5003 27.6764 15.3829 27.6764C14.9051 27.6764 13.9965 27.8095 13.4404 27.9974C6.8377 30.2366 2.2949 35.858 0.657923 43.8126C0.274134 45.6759 0.0626593 47.6567 0.0313296 49.7158L0.0156648 50.5849L0 50.4987V59.98H3.42276C1.87195 54.5073 1.58998 49.1208 2.60036 44.2118ZM10.4563 19.7297C10.5581 19.4401 10.2213 19.0251 9.78268 18.4927L9.64953 18.3361C7.53478 15.729 8.63915 12.9339 10.0412 10.5304C6.7907 10.7183 3.47759 11.7047 0.211475 13.4663C0.164481 13.4898 0.117486 13.5211 0.0704917 13.5446C0.0469945 13.5603 0.0234972 13.5759 0 13.5838V15.8777C0.42295 15.6194 0.806738 15.4002 1.1592 15.2123C2.96065 14.2414 4.79344 13.5211 6.61839 13.067L6.7672 13.0279L6.73587 13.1688C6.60272 13.6934 6.57923 14.2571 6.65755 14.8678L6.66538 14.9461L6.58706 14.9696C4.35482 15.5881 2.13825 16.6215 0 18.0465V20.4735C2.30273 18.7589 4.70728 17.5532 7.15882 16.8955L7.23715 16.8721L7.26848 16.9425C7.47995 17.4279 7.73842 17.9134 8.03605 18.4066L8.09871 18.5084L7.98123 18.5397C5.16156 19.2991 2.47504 20.7241 0 22.791V25.4529C2.84317 22.7049 6.00746 20.9589 9.39889 20.2543C10.0333 20.129 10.3858 19.9568 10.4563 19.7297ZM54.0828 55.2981C50.7305 55.1963 47.6916 54.4917 45.0677 53.1842C44.7936 53.0511 44.4959 52.9806 44.167 52.9806C43.2897 52.9806 42.5143 53.4739 42.4125 53.6304C42.5222 53.8184 43.556 54.6639 44.1043 54.9458C46.9318 56.3863 50.2684 57.1693 54.0201 57.2789C54.1846 57.2867 54.3491 57.2867 54.5136 57.2867C59.0564 57.3415 63.9438 56.3159 68.6119 54.3429V52.1742C63.8028 54.3429 58.7588 55.4312 54.0828 55.2981ZM15.7666 36.2808C16.3932 35.7719 16.5264 34.989 16.5577 34.574C16.589 34.0964 16.5029 33.7598 16.4559 33.6893C16.2131 33.7128 15.0539 34.2922 14.5605 34.6993C9.13259 39.115 6.7907 45.9421 7.95773 53.928C8.25536 55.9557 8.78797 57.9209 9.53205 59.9878H11.6546C10.8166 57.8269 10.237 55.76 9.92367 53.6461C8.86629 46.404 10.934 40.2424 15.7666 36.2808ZM24.7817 47.2653C24.8209 46.4745 24.351 45.856 24.069 45.5663C23.7322 45.2062 23.4111 45.0339 23.3171 45.0104C23.1918 45.1905 22.8315 46.4588 22.7845 47.093C22.4477 51.634 23.8262 56.0262 26.779 59.9878H29.3324C26.0271 56.1202 24.445 51.7827 24.7817 47.2653ZM60.1373 7.08548C59.9414 13.7795 57.2471 19.2365 52.5398 22.4387C51.8741 22.8928 51.6704 23.6522 51.6078 24.0672C51.5373 24.5369 51.5921 24.8736 51.6313 24.9675C51.8741 24.9519 53.1038 24.4664 53.605 24.1298C58.8841 20.6379 61.9152 14.6016 62.1267 7.14812C62.1893 4.85414 61.9779 2.45056 61.4923 0.00782926H59.4715C59.9728 2.41924 60.1999 4.79934 60.1373 7.08548ZM17.2861 39.3342C17.6934 38.8331 17.6934 38.1755 17.6151 37.7214C17.5211 37.1498 17.294 36.7271 17.2078 36.6488C17.0355 36.7192 16.1974 37.5178 15.657 38.1677C11.3413 43.3898 10.331 50.397 12.8138 57.8817C13.0488 58.5864 13.3308 59.2284 13.6441 59.98H15.8215C15.3829 59.017 14.9991 58.1636 14.7014 57.2476C12.4614 50.5144 13.3778 44.1414 17.2861 39.3342ZM22.2284 43.562C22.6983 42.372 21.9308 41.041 21.7428 40.9157C21.5548 41.0253 20.7167 42.0118 20.4661 42.6382C18.2025 48.2439 18.8213 54.3351 22.1971 59.9878H24.5468C20.9517 54.6091 20.1215 48.8468 22.2284 43.562ZM30.6012 55.3607C30.1939 54.7109 29.8258 54.523 29.3637 54.2881C29.1836 54.1942 28.9799 54.0924 28.7528 53.9515C28.2437 53.6226 27.7189 53.1059 27.3273 52.55C27.6249 53.6774 28.0322 55.0084 28.8781 56.3942C29.6613 57.6782 30.6482 58.8213 31.8074 59.9878H34.7602C33.0998 58.5707 31.7056 57.091 30.6012 55.3607ZM49.0544 58.5472C46.3444 57.9913 43.8772 57.0362 41.7311 55.713C41.4178 55.5173 41.0418 55.4155 40.6424 55.4155C39.8435 55.4155 39.1542 55.7913 39.0446 55.9166C39.1464 56.1123 40.1019 57.044 40.6267 57.3728C42.4673 58.5316 44.5978 59.338 46.971 59.98H68.6119V56.4881C64.1474 58.2184 59.4637 59.1423 55.0462 59.1423C52.9863 59.1423 50.9577 58.9387 49.0544 58.5472ZM34.8229 55.7835C34.212 55.7835 33.7107 55.9871 33.6167 56.0653C33.6715 56.2689 34.4156 57.2945 34.9091 57.7721C35.755 58.5942 36.7262 59.2675 37.7914 59.9878H41.7624C39.6633 58.9622 37.8149 57.7956 36.2797 56.3237C35.8255 55.8774 35.2302 55.7835 34.8229 55.7835ZM19.4635 41.8787C19.91 41.1115 19.7768 40.3129 19.6594 39.9058C19.534 39.4595 19.3539 39.2089 19.3069 39.1855C19.1816 39.2011 18.3278 39.8979 17.8266 40.7435C14.4665 46.451 14.4821 53.2155 17.8501 59.9878H20.0901C20.0745 59.9565 20.051 60.027 20.0353 59.9878C16.6125 53.6539 16.4089 47.2183 19.4635 41.8787ZM41.1828 10.7887C41.0575 11.5012 41.3943 12.104 41.6998 12.4798C42.0209 12.8713 42.3655 13.1062 42.4752 13.1375C42.6083 12.9731 43.0234 11.7987 43.1488 11.0941C43.8145 7.32819 43.2819 3.60146 41.5431 0.00782926H39.2874C41.1593 3.43705 41.8094 7.16378 41.1828 10.7887ZM38.2378 11.3916C38.1987 12.2606 38.6999 12.9261 39.0054 13.2471C39.3344 13.5994 39.6398 13.7638 39.7338 13.7873C39.8591 13.5994 40.2351 12.245 40.2743 11.5795C40.5249 7.55524 39.4597 3.55449 37.1961 0.00782926H34.7289C37.2275 3.44488 38.4415 7.38299 38.2378 11.3916ZM44.0103 12.104C43.7284 12.8948 44.0182 13.6542 44.214 14.03C44.4176 14.4293 44.6291 14.6486 44.6996 14.6877C44.8719 14.5703 45.6081 13.529 45.8431 12.887C47.3156 8.75312 47.2451 4.30609 45.6238 0.00782926H43.4855C45.1852 4.06339 45.3653 8.24421 44.0103 12.104ZM5.85081 49.2461C6.06229 41.8944 9.24225 36.1477 14.8033 33.063C15.5003 32.6715 15.7745 31.9434 15.8685 31.5363C15.986 31.0665 15.9625 30.722 15.9311 30.6359C15.6022 30.6437 14.3803 31.0274 13.8869 31.3014C7.6601 34.6523 4.10418 41.0097 3.86138 49.1913C3.75956 52.7223 4.29216 56.2846 5.44353 59.9878H7.52695C6.31292 56.2924 5.74899 52.7536 5.85081 49.2461ZM11.9053 1.03346C20.6932 1.284 26.497 4.90112 29.1679 11.7674C29.5909 12.8556 30.9145 13.1923 31.3453 13.1923C31.3923 13.1923 31.4236 13.1923 31.4393 13.1845C31.4785 12.9574 31.2513 11.6734 31.032 11.0862C28.9251 5.5118 24.6329 1.67546 18.6176 0.00782926H0V3.08473C3.75956 1.71461 7.49562 1.02563 11.0985 1.02563C11.3727 1.02563 11.639 1.02563 11.9053 1.03346ZM32.3635 12.3311C32.6142 13.6229 34.0553 14.1945 34.3999 14.1945H34.4078C34.4861 13.9831 34.5018 12.6208 34.3765 11.9631C33.4679 7.06982 30.9067 2.9438 26.967 0.00782926H23.4346C28.3142 2.52885 31.2357 6.56875 32.3635 12.3311ZM37.1335 14.9852C37.2509 14.7895 37.5329 13.3724 37.4938 12.6599C37.2666 7.96236 35.4965 3.59363 32.3635 0.00782926H29.5595C33.1154 3.43705 35.191 7.92321 35.4103 12.6599C35.4808 14.077 36.875 14.9539 37.1335 14.9852ZM54.1298 47.9542C51.5529 47.8603 49.1719 47.3201 47.2451 46.2866C46.2582 45.7542 45.193 45.5037 43.7284 46.5998C43.1018 47.0695 42.8355 47.1713 42.3812 47.1556C41.9661 47.1478 41.3395 46.4902 40.6189 46.0909C39.3892 45.4019 39.1777 45.2766 37.8854 44.8225C37.0238 44.5094 37.3919 41.6204 37.7131 41.0488C38.3475 39.9292 41.222 39.389 41.9112 38.0737C42.3733 37.189 41.5039 36.3121 41.1123 35.7719C40.9478 37.5726 39.0759 38.2538 37.204 38.2381C35.3085 38.2146 31.8388 37.0402 31.7996 36.0381C31.5333 36.4609 31.1808 37.1968 31.2748 37.8936C31.4706 39.4517 35.8489 39.4595 36.5304 41.041C36.7653 41.5812 36.546 43.3819 36.3816 43.9378C36.1857 44.619 35.7393 44.7442 34.8699 45.0261C31.2043 46.2161 30.8284 49.9507 26.0349 45.4724C30.5229 53.5913 31.9562 46.5528 36.2797 46.6076C39.9845 46.6546 42.483 49.5436 44.4803 50.8354C44.5664 50.8824 44.6526 50.9372 44.7466 50.992C45.8509 51.6575 47.1433 52.1899 48.7803 52.6675C50.5895 53.1842 52.5242 53.4582 54.5449 53.4817C55.9078 53.4895 57.3254 53.3956 58.7509 53.192C62.0249 52.7066 65.3458 51.6496 68.6041 50.0446V47.8133C65.2518 49.5827 61.8447 50.7258 58.4611 51.2269C57.2158 51.4069 55.9939 51.5009 54.8269 51.5009C50.6052 51.5009 46.8535 50.2873 43.6892 47.8994C43.6265 47.8525 43.6187 47.7976 43.6187 47.7663C43.6265 47.688 43.6892 47.6176 43.8145 47.5549C44.1435 47.367 44.5038 47.187 44.9815 47.187C45.4515 47.187 45.9841 47.3514 46.642 47.7194C48.9917 48.9955 51.6234 49.6297 54.6702 49.661C57.2549 49.6923 59.9649 49.2461 62.7063 48.3379C64.6879 47.6802 66.6695 46.7798 68.6041 45.6681V43.3506C66.4737 44.6816 64.2806 45.7229 62.0797 46.451C59.119 47.4375 56.5187 47.9229 54.1298 47.9542ZM22.3537 35.2943C22.5652 35.9598 22.9333 37.236 23.8419 37.0324C24.4528 35.0046 26.2856 34.0573 26.779 31.9669C26.5049 31.5128 26.0584 31.3953 25.7216 31.1135C23.5442 29.7512 21.1005 27.5512 21.6723 24.6935C21.0457 24.9049 20.3094 25.0536 20.0118 25.7113C19.3382 28.295 21.218 30.5263 23.2779 32.1078C24.5624 33.1804 21.9308 33.7911 22.3537 35.2943ZM43.5169 31.4658L43.5247 31.4736C46.5793 30.8708 50.0491 26.9327 47.8325 24.1611L47.8169 24.1454C45.381 24.7483 40.9322 23.0102 39.5067 26.001C38.418 24.5291 36.6244 23.6365 34.6663 23.7775C33.1154 23.8949 31.9249 24.4195 31.0007 25.5234C30.5386 26.0793 30.2801 27.011 29.583 27.4964V27.4885C28.698 24.4508 25.1499 24.8266 22.4555 24.5761C22.3694 30.174 28.4003 26.4472 30.0608 29.3206C30.1 29.3754 30.1313 29.4615 30.1313 29.4615C31.2592 26.87 33.1938 26.1184 35.5905 26.1184H35.614C37.1961 26.1732 37.7836 26.7839 38.1673 27.4651L40.1176 33.8068C40.3448 34.347 40.3447 35.4822 41.0732 34.668C41.8721 32.9064 40.4857 30.9804 40.4309 29.2423V29.1797C40.4309 27.9113 41.457 26.8779 42.7336 26.8779C43.1644 26.8779 43.5717 26.9953 43.9163 27.2067H43.9242C45.2322 26.6978 45.9919 24.6387 47.4018 25.2572C47.0806 28.0444 42.4595 28.3028 43.5169 31.4658ZM54.1063 13.6307C54.7799 12.3624 53.7303 11.1019 53.5267 11.1176C51.3101 11.3211 51.7331 13.9439 49.9316 15.9795C48.9447 17.0913 49.3755 18.6023 49.5557 18.6571C49.7358 18.7119 50.989 17.7255 51.4511 17.2244C52.5007 16.1205 53.417 14.9147 54.1063 13.6307ZM12.665 19.5575C13.7459 19.5653 14.8268 19.6828 15.9155 19.8863C17.3096 20.1525 18.5785 19.2756 18.555 19.0721C18.5393 18.9312 17.1138 18.344 16.4794 18.2109C15.328 17.976 14.9207 17.882 14.4351 17.3966C13.832 16.7859 13.8007 15.9169 13.8164 14.7738C13.832 13.529 13.4639 11.2663 12.5945 11.2585C11.3257 11.2507 11.0829 12.7774 11.0594 14.6564C11.0359 16.9269 12.5084 17.1774 12.4927 18.6258C12.4849 19.0721 12.2421 19.5497 12.665 19.5575ZM131.467 42.7948C136.049 42.7948 138.751 39.7805 138.751 35.1456V31.0978C138.751 18.6415 146.772 10.5852 162.186 10.5852H166.595V27.7156H165.859C160.502 27.7156 157.275 31.1213 157.275 36.7819V41.5342C157.275 53.4425 148.213 59.9878 134.811 59.9878H130.535V42.7948H131.467ZM164.551 42.7948V59.9878H168.828C182.229 59.9878 191.291 53.4425 191.291 41.5342V36.7819C191.291 31.1213 194.518 27.7156 199.875 27.7156H200.612V10.5773H196.21C180.788 10.5773 172.767 18.6336 172.767 31.09V35.1377C172.767 39.7727 170.057 42.7869 165.475 42.7869H164.551V42.7948ZM103.873 59.9878V42.7948H101.32C97.1611 42.7948 93.7775 39.4125 93.7775 35.2552C93.7775 31.0978 97.1611 27.7156 101.32 27.7156C105.926 27.7156 108.244 30.7299 108.244 35.2552L108.236 59.9878H126.172V35.2473C126.172 21.554 115.027 10.4129 101.32 10.4129C87.6212 10.4129 76.4678 21.554 76.4678 35.2473C76.4678 48.9407 87.6134 59.98 101.32 59.98H103.873V59.9878ZM229.709 59.9878V42.7948H227.156C222.989 42.7948 219.605 39.4125 219.605 35.2552C219.605 31.0978 222.989 27.7156 227.156 27.7156C231.753 27.7156 234.072 30.7299 234.072 35.2552L234.064 59.9878H252V35.2473C252 21.554 240.854 10.4129 227.156 10.4129C213.457 10.4129 202.303 21.554 202.303 35.2473C202.303 48.9407 213.457 59.98 227.156 59.98H229.709V59.9878Z" fill="#0D2E68"/>
</svg>
